<mxfile host="app.diagrams.net" modified="2021-09-05T06:47:27.207Z" agent="5.0 (Macintosh; Intel Mac OS X 10_15_7) AppleWebKit/537.36 (KHTML, like Gecko) Chrome/92.0.4515.159 Safari/537.36" etag="Y1vKbK3neu2dOepphitx" version="15.0.6" type="github">
  <diagram id="C5RBs43oDa-KdzZeNtuy" name="Page-1">
    <mxGraphModel dx="5327" dy="5582" grid="1" gridSize="10" guides="1" tooltips="1" connect="1" arrows="1" fold="1" page="1" pageScale="1" pageWidth="827" pageHeight="1169" math="0" shadow="0">
      <root>
        <mxCell id="WIyWlLk6GJQsqaUBKTNV-0" />
        <mxCell id="WIyWlLk6GJQsqaUBKTNV-1" parent="WIyWlLk6GJQsqaUBKTNV-0" />
        <mxCell id="zkfFHV4jXpPFQw0GAbJ--0" value="Makefile" style="swimlane;fontStyle=2;align=center;verticalAlign=top;childLayout=stackLayout;horizontal=1;startSize=26;horizontalStack=0;resizeParent=1;resizeLast=0;collapsible=1;marginBottom=0;rounded=0;shadow=0;strokeWidth=1;" parent="WIyWlLk6GJQsqaUBKTNV-1" vertex="1">
          <mxGeometry x="70" y="20" width="460" height="830" as="geometry">
            <mxRectangle x="230" y="140" width="160" height="26" as="alternateBounds" />
          </mxGeometry>
        </mxCell>
        <mxCell id="u2uQaywFyPR_KE_2P75B-1" value="&lt;div&gt;NAME&lt;span&gt; &lt;/span&gt;= minishell&lt;/div&gt;&lt;div&gt;&lt;br&gt;&lt;/div&gt;&lt;div&gt;CC&lt;span&gt;  &lt;/span&gt;= gcc&lt;/div&gt;&lt;div&gt;CFLAGS&lt;span&gt; &lt;/span&gt;= -Wall -Wextra -Werror&lt;/div&gt;&lt;div&gt;&lt;br&gt;&lt;/div&gt;&lt;div&gt;SRC_DIR&lt;span&gt;  &lt;/span&gt;= ./srcs/&lt;/div&gt;&lt;div&gt;OBJ_DIR&lt;span&gt;  &lt;/span&gt;= ./objs/&lt;/div&gt;&lt;div&gt;LIBFT_DIR&lt;span&gt; &lt;/span&gt;= ./libft/&lt;/div&gt;&lt;div&gt;INCDIR&lt;span&gt;  &lt;/span&gt;= ./includes/&lt;/div&gt;&lt;div&gt;&lt;br&gt;&lt;/div&gt;&lt;div&gt;LIBFT = libft.a&lt;/div&gt;&lt;div&gt;&lt;br&gt;&lt;/div&gt;&lt;div&gt;SRC &lt;span&gt; &lt;/span&gt;=&lt;span&gt; &lt;span style=&quot;white-space: pre&quot;&gt; &lt;/span&gt;&lt;/span&gt;main.c error.c utils.c check.c init.c \&lt;/div&gt;&lt;div&gt;&lt;span&gt;   &lt;/span&gt;&lt;span style=&quot;white-space: pre&quot;&gt; &lt;span style=&quot;white-space: pre&quot;&gt; &lt;/span&gt;&lt;/span&gt;command_filter.c exec_cmd.c using_free.c \&lt;/div&gt;&lt;div&gt;&lt;span&gt;   &lt;/span&gt;&lt;span style=&quot;white-space: pre&quot;&gt; &lt;/span&gt;&lt;span style=&quot;white-space: pre&quot;&gt; &lt;/span&gt;make_command_list.c make_command_list_2.c replace_env.c \&lt;/div&gt;&lt;div&gt;&lt;span&gt;   &lt;/span&gt;&lt;span style=&quot;white-space: pre&quot;&gt; &lt;/span&gt;&lt;span style=&quot;white-space: pre&quot;&gt; &lt;/span&gt;redirect_util.c get_next_line_utils.c get_next_line.c \&lt;/div&gt;&lt;div&gt;&lt;span&gt;   &lt;/span&gt;&lt;span style=&quot;white-space: pre&quot;&gt; &lt;/span&gt;&lt;span style=&quot;white-space: pre&quot;&gt; &lt;/span&gt;sig_handler.c set_connect_pipe.c redirect_filter.c \&lt;/div&gt;&lt;div&gt;&lt;span&gt;   &lt;/span&gt;&lt;span style=&quot;white-space: pre&quot;&gt; &lt;/span&gt;&lt;span style=&quot;white-space: pre&quot;&gt; &lt;/span&gt;redirect_filter_2.c redirection_dup.c redirection_in_dup.c \&lt;/div&gt;&lt;div&gt;&lt;span&gt;   &lt;/span&gt;&lt;span style=&quot;white-space: pre&quot;&gt; &lt;/span&gt;&lt;span style=&quot;white-space: pre&quot;&gt; &lt;/span&gt;redirection_out_dup.c exec_builtin.c merge_sort.c make_param.c \&lt;/div&gt;&lt;div&gt;&lt;span&gt;   &lt;/span&gt;&lt;span style=&quot;white-space: pre&quot;&gt; &lt;/span&gt;&lt;span style=&quot;white-space: pre&quot;&gt; &lt;/span&gt;utils_2.c copy_envp.c write_env_file.c write_export_file.c \&lt;/div&gt;&lt;div&gt;&lt;span&gt;   &lt;/span&gt;&lt;span style=&quot;white-space: pre&quot;&gt; &lt;/span&gt;&lt;span style=&quot;white-space: pre&quot;&gt; &lt;/span&gt;builtin_cd.c builtin_echo.c builtin_exit.c builtin_pwd.c \&lt;/div&gt;&lt;div&gt;&lt;span&gt;   &lt;/span&gt;&lt;span style=&quot;white-space: pre&quot;&gt; &lt;/span&gt;&lt;span style=&quot;white-space: pre&quot;&gt; &lt;/span&gt;builtin_env.c builtin_unset.c builtin_export.c export_print.c \&lt;/div&gt;&lt;div&gt;&lt;span&gt;   &lt;/span&gt;&lt;span style=&quot;white-space: pre&quot;&gt; &lt;/span&gt;&lt;span style=&quot;white-space: pre&quot;&gt; &lt;/span&gt;export_add_var.c export_file_merge.c datafile_to_temp.c \&lt;/div&gt;&lt;div&gt;&lt;span&gt;   &lt;/span&gt;&lt;span style=&quot;white-space: pre&quot;&gt; &lt;/span&gt;&lt;span style=&quot;white-space: pre&quot;&gt; &lt;/span&gt;temp_to_datafile.c remove_var.c filter_asterisk.c \&lt;/div&gt;&lt;div&gt;&lt;span&gt;   &lt;/span&gt;&lt;span style=&quot;white-space: pre&quot;&gt; &lt;/span&gt;&lt;span style=&quot;white-space: pre&quot;&gt; &lt;/span&gt;list_to_string.c free_utils.c status_macro.c \&lt;/div&gt;&lt;div&gt;&lt;br&gt;&lt;/div&gt;&lt;div&gt;OBJ_FILES = $(SRC:.c=.o)&lt;/div&gt;&lt;div&gt;OBJS&lt;span&gt; &lt;/span&gt;= $(addprefix $(OBJ_DIR), $(OBJ_FILES))&lt;/div&gt;&lt;div&gt;&lt;br&gt;&lt;/div&gt;&lt;div&gt;LIBS&lt;span&gt; &lt;/span&gt;= ${LIBFT} -lreadline -L$(HOME)/.brew/opt/readline/lib&lt;/div&gt;&lt;div&gt;&lt;span style=&quot;white-space: pre&quot;&gt; &lt;/span&gt;&lt;span style=&quot;white-space: pre&quot;&gt; &lt;/span&gt;-I$(HOME)/.brew/opt/readline/include&lt;/div&gt;&lt;div&gt;&lt;br&gt;&lt;/div&gt;&lt;div&gt;all:&lt;span&gt;  &lt;/span&gt;$(NAME)&lt;/div&gt;&lt;div&gt;&lt;br&gt;&lt;/div&gt;&lt;div&gt;$(NAME):&lt;span&gt; &lt;/span&gt;$(LIBFT) $(OBJS)&lt;/div&gt;&lt;div&gt;&lt;span&gt;  &lt;/span&gt;&lt;span style=&quot;white-space: pre&quot;&gt; &lt;/span&gt;&lt;span style=&quot;white-space: pre&quot;&gt; &lt;/span&gt;$(CC) ${CFLAGS} -I$(INCDIR) -o ${NAME} $(OBJS) ${LIBS}&lt;/div&gt;&lt;div&gt;&lt;br&gt;&lt;/div&gt;&lt;div&gt;$(LIBFT):&lt;/div&gt;&lt;div&gt;&lt;span&gt; &lt;/span&gt;&lt;span style=&quot;white-space: pre&quot;&gt; &lt;/span&gt;&lt;span style=&quot;white-space: pre&quot;&gt; &lt;/span&gt;@$(MAKE) -C $(LIBFT_DIR)&lt;/div&gt;&lt;div&gt;&lt;span&gt; &lt;/span&gt;&lt;span style=&quot;white-space: pre&quot;&gt; &lt;/span&gt;&lt;span style=&quot;white-space: pre&quot;&gt; &lt;/span&gt;@mv $(LIBFT_DIR)/${LIBFT} .&lt;/div&gt;&lt;div&gt;&lt;br&gt;&lt;/div&gt;&lt;div&gt;$(OBJ_DIR)%.o: $(SRC_DIR)%.c&lt;/div&gt;&lt;div&gt;&lt;span&gt; &lt;/span&gt;&lt;span style=&quot;white-space: pre&quot;&gt; &lt;/span&gt;&lt;span style=&quot;white-space: pre&quot;&gt; &lt;/span&gt;&lt;span style=&quot;white-space: pre&quot;&gt; &lt;/span&gt;@mkdir -p $(OBJ_DIR)&lt;/div&gt;&lt;div&gt;&lt;span&gt; &lt;/span&gt;&lt;span style=&quot;white-space: pre&quot;&gt; &lt;/span&gt;&lt;span style=&quot;white-space: pre&quot;&gt; &lt;/span&gt;&lt;span style=&quot;white-space: pre&quot;&gt; &lt;/span&gt;$(CC) ${CFLAGS} -c $&amp;lt; -o $@ -I$(HOME)/.brew/opt/readline/include&lt;/div&gt;&lt;div&gt;&lt;br&gt;&lt;/div&gt;&lt;div&gt;clean:&lt;/div&gt;&lt;div&gt;&lt;span&gt; &lt;/span&gt;&lt;span style=&quot;white-space: pre&quot;&gt; &lt;/span&gt;@$(MAKE) -C $(LIBFT_DIR) clean&lt;/div&gt;&lt;div&gt;&lt;span&gt; &lt;/span&gt;&lt;span style=&quot;white-space: pre&quot;&gt; &lt;/span&gt;$(RM) $(OBJS)&lt;/div&gt;&lt;div&gt;&lt;span&gt; &lt;/span&gt;&lt;span style=&quot;white-space: pre&quot;&gt; &lt;/span&gt;$(RM) -rf $(OBJ_DIR)&lt;/div&gt;&lt;div&gt;&lt;br&gt;&lt;/div&gt;&lt;div&gt;fclean:&lt;span&gt; &lt;/span&gt;clean&lt;/div&gt;&lt;div&gt;&lt;span&gt;  &lt;/span&gt;&lt;span style=&quot;white-space: pre&quot;&gt; &lt;/span&gt;$(RM) $(NAME)&lt;/div&gt;&lt;div&gt;&lt;span&gt;  &lt;/span&gt;&lt;span style=&quot;white-space: pre&quot;&gt; &lt;/span&gt;$(RM) ${LIBFT}&lt;/div&gt;&lt;div&gt;&lt;br&gt;&lt;/div&gt;&lt;div&gt;re: fclean all&lt;/div&gt;&lt;div&gt;&lt;br&gt;&lt;/div&gt;&lt;div&gt;.PHONY:&lt;span&gt; &lt;/span&gt;all clean fclean re&lt;/div&gt;" style="text;html=1;strokeColor=none;fillColor=none;align=left;verticalAlign=middle;whiteSpace=wrap;rounded=0;" parent="zkfFHV4jXpPFQw0GAbJ--0" vertex="1">
          <mxGeometry y="26" width="460" height="804" as="geometry" />
        </mxCell>
        <mxCell id="u2uQaywFyPR_KE_2P75B-2" value="define.h" style="swimlane;fontStyle=2;align=center;verticalAlign=top;childLayout=stackLayout;horizontal=1;startSize=26;horizontalStack=0;resizeParent=1;resizeLast=0;collapsible=1;marginBottom=0;rounded=0;shadow=0;strokeWidth=1;" parent="WIyWlLk6GJQsqaUBKTNV-1" vertex="1">
          <mxGeometry x="70" y="916" width="460" height="890" as="geometry">
            <mxRectangle x="230" y="140" width="160" height="26" as="alternateBounds" />
          </mxGeometry>
        </mxCell>
        <mxCell id="u2uQaywFyPR_KE_2P75B-3" value="&lt;div&gt;typedef struct s_sort&lt;/div&gt;&lt;div&gt;{&lt;/div&gt;&lt;div&gt;&lt;span&gt; &lt;/span&gt;&lt;span style=&quot;white-space: pre&quot;&gt; &lt;/span&gt;int&lt;span&gt;  &lt;/span&gt;idx_l;&lt;/div&gt;&lt;div&gt;&lt;span&gt; &lt;/span&gt;&lt;span style=&quot;white-space: pre&quot;&gt; &lt;/span&gt;int&lt;span&gt;  &lt;/span&gt;idx_r;&lt;/div&gt;&lt;div&gt;&lt;span&gt; &lt;/span&gt;&lt;span style=&quot;white-space: pre&quot;&gt; &lt;/span&gt;int&lt;span&gt;  &lt;/span&gt;idx_m;&lt;/div&gt;&lt;div&gt;&lt;span&gt; &lt;/span&gt;&lt;span style=&quot;white-space: pre&quot;&gt; &lt;/span&gt;int&lt;span&gt;  &lt;/span&gt;curr_l;&lt;/div&gt;&lt;div&gt;&lt;span&gt; &lt;/span&gt;&lt;span style=&quot;white-space: pre&quot;&gt; &lt;/span&gt;int&lt;span&gt;  &lt;/span&gt;curr_r;&lt;/div&gt;&lt;div&gt;&lt;span&gt; &lt;/span&gt;&lt;span style=&quot;white-space: pre&quot;&gt; &lt;/span&gt;int&lt;span&gt;  &lt;/span&gt;k;&lt;/div&gt;&lt;div&gt;}&lt;span&gt;    &lt;/span&gt;t_sort;&lt;/div&gt;&lt;div&gt;&lt;br&gt;&lt;/div&gt;&lt;div&gt;typedef struct s_strjoin&lt;/div&gt;&lt;div&gt;{&lt;/div&gt;&lt;div&gt;&lt;span&gt; &lt;/span&gt;&lt;span style=&quot;white-space: pre&quot;&gt; &lt;/span&gt;int&lt;span&gt;  &lt;/span&gt;front_s;&lt;/div&gt;&lt;div&gt;&lt;span&gt; &lt;/span&gt;&lt;span style=&quot;white-space: pre&quot;&gt; &lt;/span&gt;int&lt;span&gt;  &lt;/span&gt;front_len;&lt;/div&gt;&lt;div&gt;&lt;span&gt; &lt;/span&gt;&lt;span style=&quot;white-space: pre&quot;&gt; &lt;/span&gt;int&lt;span&gt;  &lt;/span&gt;back_s;&lt;/div&gt;&lt;div&gt;&lt;span&gt; &lt;/span&gt;&lt;span style=&quot;white-space: pre&quot;&gt; &lt;/span&gt;int&lt;span&gt;  &lt;/span&gt;back_len;&lt;/div&gt;&lt;div&gt;&lt;span&gt; &lt;/span&gt;&lt;span style=&quot;white-space: pre&quot;&gt; &lt;/span&gt;char&lt;span&gt; &lt;/span&gt;*front;&lt;/div&gt;&lt;div&gt;&lt;span&gt; &lt;/span&gt;&lt;span style=&quot;white-space: pre&quot;&gt; &lt;/span&gt;char&lt;span&gt; &lt;/span&gt;*back;&lt;/div&gt;&lt;div&gt;&lt;span&gt; &lt;/span&gt;&lt;span style=&quot;white-space: pre&quot;&gt; &lt;/span&gt;char&lt;span&gt; &lt;/span&gt;*content;&lt;/div&gt;&lt;div&gt;}&lt;span&gt;    &lt;/span&gt;t_strjoin;&lt;/div&gt;&lt;div&gt;&lt;br&gt;&lt;/div&gt;&lt;div&gt;typedef struct s_data_to_temp&lt;/div&gt;&lt;div&gt;{&lt;/div&gt;&lt;div&gt;&lt;span&gt; &lt;/span&gt;&lt;span style=&quot;white-space: pre&quot;&gt; &lt;/span&gt;int&lt;span&gt;  &lt;/span&gt;read_fd;&lt;/div&gt;&lt;div&gt;&lt;span&gt; &lt;/span&gt;&lt;span style=&quot;white-space: pre&quot;&gt; &lt;/span&gt;int&lt;span&gt;  &lt;/span&gt;write_fd;&lt;/div&gt;&lt;div&gt;&lt;span&gt; &lt;/span&gt;&lt;span style=&quot;white-space: pre&quot;&gt; &lt;/span&gt;char&lt;span&gt; &lt;/span&gt;*key;&lt;/div&gt;&lt;div&gt;&lt;span&gt; &lt;/span&gt;&lt;span style=&quot;white-space: pre&quot;&gt; &lt;/span&gt;char&lt;span&gt; &lt;/span&gt;*param;&lt;/div&gt;&lt;div&gt;}&lt;span&gt;    &lt;/span&gt;t_data_to_temp;&lt;/div&gt;&lt;div&gt;&lt;br&gt;&lt;/div&gt;&lt;div&gt;typedef struct s_info&lt;/div&gt;&lt;div&gt;{&lt;/div&gt;&lt;div&gt;&lt;span&gt; &lt;/span&gt;&lt;span style=&quot;white-space: pre&quot;&gt; &lt;/span&gt;t_list&lt;span&gt; &lt;/span&gt;*commands;&amp;nbsp; &amp;nbsp;\\ input 으로 받은 문자열을 parsing 해 나눈 list&amp;nbsp;&lt;/div&gt;&lt;div&gt;&lt;span style=&quot;white-space: pre&quot;&gt; &lt;/span&gt;&lt;span&gt;t_list&lt;/span&gt;&lt;span&gt; &lt;/span&gt;&lt;span&gt;*commands_symbol;&amp;nbsp; \\ command의 symbol (command 가 ||, &amp;amp;&amp;amp;, | 인지&amp;nbsp;&lt;/span&gt;&lt;/div&gt;&lt;div&gt;&lt;span&gt;&lt;span style=&quot;white-space: pre&quot;&gt; &lt;/span&gt;&lt;span style=&quot;white-space: pre&quot;&gt; &lt;/span&gt;&lt;span style=&quot;white-space: pre&quot;&gt; &lt;/span&gt;&lt;span style=&quot;white-space: pre&quot;&gt; &lt;/span&gt;&lt;span style=&quot;white-space: pre&quot;&gt; &lt;/span&gt;&lt;span style=&quot;white-space: pre&quot;&gt; &lt;/span&gt;&lt;span style=&quot;white-space: pre&quot;&gt; &lt;/span&gt;구분하기 위함)&amp;nbsp;&lt;/span&gt;&lt;span&gt;commands list 의 갯수 - 1만큼 있다.&lt;/span&gt;&lt;/div&gt;&lt;div&gt;&lt;span&gt; &lt;/span&gt;&lt;span style=&quot;white-space: pre&quot;&gt; &lt;/span&gt;t_list&lt;span&gt; &lt;/span&gt;*redirect_lst; \\ redirect 가 fork 된 뒤 프로그램 실행전에 적용되야 해서 만든 list&lt;/div&gt;&lt;div&gt;&lt;span style=&quot;white-space: pre&quot;&gt; &lt;/span&gt;&lt;span style=&quot;white-space: pre&quot;&gt; &lt;/span&gt;&lt;span style=&quot;white-space: pre&quot;&gt; &lt;/span&gt;&lt;span style=&quot;white-space: pre&quot;&gt; &lt;/span&gt;&lt;span style=&quot;white-space: pre&quot;&gt; &lt;/span&gt;순서대로 적용돼야 해서 list 로 만들었다.&lt;br&gt;&lt;/div&gt;&lt;div&gt;&lt;span&gt; &lt;/span&gt;&lt;span style=&quot;white-space: pre&quot;&gt; &lt;/span&gt;t_list&lt;span&gt; &lt;/span&gt;*param_list;&amp;nbsp; \\ param_list : commands 를 comannd와 argumants 로 분리해&lt;/div&gt;&lt;div&gt;&lt;span style=&quot;white-space: pre&quot;&gt; &lt;/span&gt;&lt;span style=&quot;white-space: pre&quot;&gt; &lt;/span&gt;&lt;span style=&quot;white-space: pre&quot;&gt; &lt;/span&gt;&lt;span style=&quot;white-space: pre&quot;&gt; &lt;/span&gt;&lt;span style=&quot;white-space: pre&quot;&gt; &lt;/span&gt;2차원 배열로 만들기 위한 list&lt;br&gt;&lt;/div&gt;&lt;div&gt;&lt;span&gt; &lt;/span&gt;&lt;span style=&quot;white-space: pre&quot;&gt; &lt;/span&gt;t_list&lt;span&gt; &lt;/span&gt;*temp_list; \\ 위와 동일&lt;/div&gt;&lt;div&gt;&lt;span&gt; &lt;/span&gt;&lt;span style=&quot;white-space: pre&quot;&gt; &lt;/span&gt;void&lt;span&gt; &lt;/span&gt;(*sigint)(int);&amp;nbsp; \\ signal에서 SIGINT (ctrl + c)가 발생했을때 제어하기 위한 함수&lt;/div&gt;&lt;div&gt;&lt;span&gt; &lt;/span&gt;&lt;span style=&quot;white-space: pre&quot;&gt; &lt;/span&gt;void&lt;span&gt; &lt;/span&gt;(*sigquit)(int); \\ signal에서 SIGQUIT (ctrl + \)가 발생했을때 제어하기 위한 함수&lt;/div&gt;&lt;div&gt;&lt;span&gt; &lt;/span&gt;&lt;span style=&quot;white-space: pre&quot;&gt; &lt;/span&gt;char&lt;span&gt; &lt;/span&gt;**paths;&amp;nbsp; &amp;nbsp; &amp;nbsp; &amp;nbsp; \\ command가 경로없이 단일로 들어왔을때 실행하기위한 &lt;span style=&quot;white-space: pre&quot;&gt; &lt;/span&gt;&lt;span style=&quot;white-space: pre&quot;&gt; &lt;/span&gt;&lt;span style=&quot;white-space: pre&quot;&gt; &lt;/span&gt;&lt;span style=&quot;white-space: pre&quot;&gt; &lt;/span&gt;&lt;span style=&quot;white-space: pre&quot;&gt; &lt;/span&gt;path($HOME) 에서 받는다.&lt;/div&gt;&lt;div&gt;&lt;span&gt; &lt;/span&gt;&lt;span style=&quot;white-space: pre&quot;&gt; &lt;/span&gt;char&lt;span&gt; &lt;/span&gt;**param;&amp;nbsp; \\ commands가 스페이스를 기준으로 split 된 command 와 arguments&lt;/div&gt;&lt;div&gt;&lt;span&gt; &lt;/span&gt;&lt;span style=&quot;white-space: pre&quot;&gt; &lt;/span&gt;char&lt;span&gt; &lt;/span&gt;**envp;&amp;nbsp; \\ envp &amp;lt; env 와 export 시 envp 가 변화해야하므로 처음 인자로 받는 &lt;span style=&quot;white-space: pre&quot;&gt; &lt;/span&gt;&lt;span style=&quot;white-space: pre&quot;&gt; &lt;/span&gt;&lt;span style=&quot;white-space: pre&quot;&gt; &lt;/span&gt;&lt;span style=&quot;white-space: pre&quot;&gt; &lt;/span&gt;envp를 copy 한 다음 들고 다닌다.&lt;/div&gt;&lt;div&gt;&lt;span&gt; &lt;/span&gt;&lt;span style=&quot;white-space: pre&quot;&gt; &lt;/span&gt;char&lt;span&gt; &lt;/span&gt;*input;&amp;nbsp; \\ readline 함수로 입력받는 문자열 들고 다니는 이유는 exit 발생시&lt;/div&gt;&lt;div&gt;&lt;span style=&quot;white-space: pre&quot;&gt; &lt;/span&gt;&lt;span style=&quot;white-space: pre&quot;&gt; &lt;/span&gt;&lt;span style=&quot;white-space: pre&quot;&gt; &lt;/span&gt;&lt;span style=&quot;white-space: pre&quot;&gt; &lt;/span&gt;free&amp;nbsp;&lt;span&gt;하기 위함&lt;/span&gt;&lt;/div&gt;&lt;div&gt;&lt;span&gt; &lt;/span&gt;&lt;span style=&quot;white-space: pre&quot;&gt; &lt;/span&gt;int&lt;span&gt;  &lt;/span&gt;command_cnt; \\ command 의 수&lt;/div&gt;&lt;div&gt;&lt;span&gt; &lt;/span&gt;&lt;span style=&quot;white-space: pre&quot;&gt; &lt;/span&gt;int&lt;span&gt;  &lt;/span&gt;asterisk_check;&lt;span style=&quot;white-space: pre&quot;&gt; &lt;/span&gt;\\ asterisk (*) command 나 arguments 에 *이 있는지 표시&lt;/div&gt;&lt;div&gt;&lt;span&gt; &lt;/span&gt;&lt;span style=&quot;white-space: pre&quot;&gt; &lt;/span&gt;int&lt;span&gt;  &lt;/span&gt;is_builtin; \\ builtin commands 인지 표시&lt;/div&gt;&lt;div&gt;&lt;span&gt; &lt;/span&gt;&lt;span style=&quot;white-space: pre&quot;&gt; &lt;/span&gt;int&lt;span&gt;  &lt;/span&gt;envp_cnt; \\ 환경변수의 갯수&lt;/div&gt;&lt;div&gt;&lt;span&gt; &lt;/span&gt;&lt;span style=&quot;white-space: pre&quot;&gt; &lt;/span&gt;int&lt;span&gt;  &lt;/span&gt;param_cnt; \\ param의 갯수&lt;/div&gt;&lt;div&gt;&lt;span&gt; &lt;/span&gt;&lt;span style=&quot;white-space: pre&quot;&gt; &lt;/span&gt;int&lt;span&gt;  &lt;/span&gt;pipe_in[2]; \\ in pipe fd&lt;/div&gt;&lt;div&gt;&lt;span&gt; &lt;/span&gt;&lt;span style=&quot;white-space: pre&quot;&gt; &lt;/span&gt;int&lt;span&gt;  &lt;/span&gt;pipe_out[2]; \\ out pipe fd&lt;/div&gt;&lt;div&gt;&lt;span&gt; &lt;/span&gt;&lt;span style=&quot;white-space: pre&quot;&gt; &lt;/span&gt;int&lt;span&gt;  &lt;/span&gt;connect_pipe[2];&amp;nbsp; \\ 연결되는 fd&lt;/div&gt;&lt;div&gt;&lt;span&gt; &lt;/span&gt;&lt;span style=&quot;white-space: pre&quot;&gt; &lt;/span&gt;int&lt;span&gt;  &lt;/span&gt;redirect_fd[2]; \\ redirect 되는 fd&lt;/div&gt;&lt;div&gt;&lt;span&gt; &lt;/span&gt;&lt;span style=&quot;white-space: pre&quot;&gt; &lt;/span&gt;int&lt;span&gt;  &lt;/span&gt;std_in;&amp;nbsp; \\&lt;/div&gt;&lt;div&gt;&lt;span&gt; &lt;/span&gt;&lt;span style=&quot;white-space: pre&quot;&gt; &lt;/span&gt;int&lt;span&gt;  &lt;/span&gt;exec_result; \\ execve 나 builtin의 자식 프로세스 종료시 발생하는 result 저장&lt;/div&gt;&lt;div&gt;}&lt;span&gt;    &lt;/span&gt;t_info;&lt;/div&gt;" style="text;html=1;strokeColor=none;fillColor=none;align=left;verticalAlign=middle;whiteSpace=wrap;rounded=0;" parent="u2uQaywFyPR_KE_2P75B-2" vertex="1">
          <mxGeometry y="26" width="460" height="864" as="geometry" />
        </mxCell>
        <mxCell id="u2uQaywFyPR_KE_2P75B-4" value="int    main(int argc, char *argv[], char *envp[])" style="swimlane;fontStyle=2;align=center;verticalAlign=top;childLayout=stackLayout;horizontal=1;startSize=26;horizontalStack=0;resizeParent=1;resizeLast=0;collapsible=1;marginBottom=0;rounded=0;shadow=0;strokeWidth=1;" parent="WIyWlLk6GJQsqaUBKTNV-1" vertex="1">
          <mxGeometry x="1086" y="115" width="310" height="360" as="geometry">
            <mxRectangle x="230" y="140" width="160" height="26" as="alternateBounds" />
          </mxGeometry>
        </mxCell>
        <mxCell id="u2uQaywFyPR_KE_2P75B-5" value="&lt;div&gt;char&lt;span&gt; &lt;/span&gt;*input;&lt;/div&gt;&lt;div&gt;&lt;span&gt; &lt;/span&gt;t_info&lt;span&gt; &lt;/span&gt;info;&lt;/div&gt;&lt;div&gt;&lt;br&gt;&lt;/div&gt;&lt;div&gt;&lt;span&gt; &lt;/span&gt;ft_memset(&amp;amp;info, 0, sizeof(t_info));&lt;/div&gt;&lt;div&gt;&lt;span&gt; &lt;/span&gt;if (!init_envp_and_signal(&amp;amp;info, argc, argv, envp))&lt;/div&gt;&lt;div&gt;&lt;span&gt;  &lt;/span&gt;&lt;span style=&quot;white-space: pre&quot;&gt; &lt;/span&gt;return (0);&lt;/div&gt;&lt;div&gt;&lt;span&gt; &lt;/span&gt;while (1)&lt;/div&gt;&lt;div&gt;&lt;span&gt; &lt;/span&gt;{&lt;/div&gt;&lt;div&gt;&lt;span&gt;  &lt;/span&gt;&lt;span style=&quot;white-space: pre&quot;&gt; &lt;/span&gt;input = readline(&quot;$ &quot;);&lt;/div&gt;&lt;div&gt;&lt;span&gt;  &lt;/span&gt;&lt;span style=&quot;white-space: pre&quot;&gt; &lt;/span&gt;if (check_input(input, &amp;amp;info))&lt;/div&gt;&lt;div&gt;&lt;span&gt;  &lt;/span&gt;&lt;span style=&quot;white-space: pre&quot;&gt; &lt;/span&gt;{&lt;/div&gt;&lt;div&gt;&lt;span&gt;   &lt;/span&gt;&lt;span style=&quot;white-space: pre&quot;&gt; &lt;/span&gt;&lt;span style=&quot;white-space: pre&quot;&gt; &lt;/span&gt;add_history(input);&lt;/div&gt;&lt;div&gt;&lt;span&gt;   &lt;/span&gt;&lt;span style=&quot;white-space: pre&quot;&gt; &lt;span style=&quot;white-space: pre&quot;&gt; &lt;/span&gt;&lt;/span&gt;if (make_command_list(&amp;amp;info, input) != 1)&lt;/div&gt;&lt;div&gt;&lt;span&gt;   &lt;/span&gt;&lt;span style=&quot;white-space: pre&quot;&gt; &lt;/span&gt;&lt;span style=&quot;white-space: pre&quot;&gt; &lt;/span&gt;{&lt;/div&gt;&lt;div&gt;&lt;span&gt;    &lt;/span&gt;&lt;span style=&quot;white-space: pre&quot;&gt; &lt;/span&gt;&lt;span style=&quot;white-space: pre&quot;&gt; &lt;/span&gt;&lt;span style=&quot;white-space: pre&quot;&gt; &lt;/span&gt;error_occur_parsing(&amp;amp;info, input);&lt;/div&gt;&lt;div&gt;&lt;span&gt;    &lt;/span&gt;&lt;span style=&quot;white-space: pre&quot;&gt; &lt;/span&gt;&lt;span style=&quot;white-space: pre&quot;&gt; &lt;/span&gt;&lt;span style=&quot;white-space: pre&quot;&gt; &lt;/span&gt;continue ;&lt;/div&gt;&lt;div&gt;&lt;span&gt;   &lt;/span&gt;&lt;span style=&quot;white-space: pre&quot;&gt; &lt;/span&gt;&lt;span style=&quot;white-space: pre&quot;&gt; &lt;/span&gt;}&lt;/div&gt;&lt;div&gt;&lt;span&gt;   &lt;/span&gt;&lt;span style=&quot;white-space: pre&quot;&gt; &lt;/span&gt;&lt;span style=&quot;white-space: pre&quot;&gt; &lt;/span&gt;start(&amp;amp;info);&lt;/div&gt;&lt;div&gt;&lt;span&gt;   &lt;/span&gt;&lt;span style=&quot;white-space: pre&quot;&gt; &lt;/span&gt;&lt;span style=&quot;white-space: pre&quot;&gt; &lt;/span&gt;clear_data(&amp;amp;info);&lt;/div&gt;&lt;div&gt;&lt;span&gt;   &lt;/span&gt;&lt;span style=&quot;white-space: pre&quot;&gt; &lt;/span&gt;&lt;span style=&quot;white-space: pre&quot;&gt; &lt;/span&gt;ft_free(input);&lt;/div&gt;&lt;div&gt;&lt;span&gt;  &lt;/span&gt;&lt;span style=&quot;white-space: pre&quot;&gt; &lt;/span&gt;}&lt;/div&gt;&lt;div&gt;&lt;span&gt; &lt;/span&gt;}&lt;/div&gt;&lt;div&gt;&lt;span&gt; &lt;/span&gt;clear_all_data(&amp;amp;info);&lt;/div&gt;" style="text;html=1;strokeColor=none;fillColor=none;align=left;verticalAlign=middle;whiteSpace=wrap;rounded=0;" parent="u2uQaywFyPR_KE_2P75B-4" vertex="1">
          <mxGeometry y="26" width="310" height="334" as="geometry" />
        </mxCell>
        <mxCell id="u2uQaywFyPR_KE_2P75B-6" value="int init_envp_and_signal(t_info *info, int argc, char *argv[], char *envp[])" style="swimlane;fontStyle=2;align=center;verticalAlign=top;childLayout=stackLayout;horizontal=1;startSize=26;horizontalStack=0;resizeParent=1;resizeLast=0;collapsible=1;marginBottom=0;rounded=0;shadow=0;strokeWidth=1;" parent="WIyWlLk6GJQsqaUBKTNV-1" vertex="1">
          <mxGeometry x="1858" y="113" width="420" height="220" as="geometry">
            <mxRectangle x="230" y="140" width="160" height="26" as="alternateBounds" />
          </mxGeometry>
        </mxCell>
        <mxCell id="u2uQaywFyPR_KE_2P75B-7" value="&lt;div&gt;argc = 0;&lt;/div&gt;&lt;div&gt;&lt;span&gt; &lt;/span&gt;argv = 0;&lt;/div&gt;&lt;div&gt;&lt;span&gt; &lt;/span&gt;info-&amp;gt;paths = init_path(envp);&lt;/div&gt;&lt;div&gt;&lt;span&gt; &lt;/span&gt;if (!init_envp_file(envp))&lt;/div&gt;&lt;div&gt;&lt;span&gt;  &lt;/span&gt;&lt;span style=&quot;white-space: pre&quot;&gt; &lt;/span&gt;return (0);&lt;/div&gt;&lt;div&gt;&lt;span&gt; &lt;/span&gt;if (!copy_envp(info))&lt;/div&gt;&lt;div&gt;&lt;span&gt; &lt;/span&gt;{&lt;/div&gt;&lt;div&gt;&lt;span&gt;  &lt;/span&gt;&lt;span style=&quot;white-space: pre&quot;&gt; &lt;/span&gt;clear_all_data(info);&lt;/div&gt;&lt;div&gt;&lt;span&gt;  &lt;/span&gt;&lt;span style=&quot;white-space: pre&quot;&gt; &lt;/span&gt;return (0);&lt;/div&gt;&lt;div&gt;&lt;span&gt; &lt;/span&gt;}&lt;/div&gt;&lt;div&gt;&lt;span&gt; &lt;/span&gt;info-&amp;gt;sigint = signal(SIGINT, sigint_handler);&lt;/div&gt;&lt;div&gt;&lt;span&gt; &lt;/span&gt;info-&amp;gt;sigquit = signal(SIGQUIT, SIG_IGN);&lt;/div&gt;&lt;div&gt;&lt;span&gt; &lt;/span&gt;return (1);&lt;/div&gt;" style="text;html=1;strokeColor=none;fillColor=none;align=left;verticalAlign=middle;whiteSpace=wrap;rounded=0;" parent="u2uQaywFyPR_KE_2P75B-6" vertex="1">
          <mxGeometry y="26" width="420" height="194" as="geometry" />
        </mxCell>
        <mxCell id="u2uQaywFyPR_KE_2P75B-8" value="char **init_path(char *envp[])" style="swimlane;fontStyle=2;align=center;verticalAlign=top;childLayout=stackLayout;horizontal=1;startSize=26;horizontalStack=0;resizeParent=1;resizeLast=0;collapsible=1;marginBottom=0;rounded=0;shadow=0;strokeWidth=1;" parent="WIyWlLk6GJQsqaUBKTNV-1" vertex="1">
          <mxGeometry x="2740" y="43" width="310" height="360" as="geometry">
            <mxRectangle x="230" y="140" width="160" height="26" as="alternateBounds" />
          </mxGeometry>
        </mxCell>
        <mxCell id="u2uQaywFyPR_KE_2P75B-9" value="&lt;div&gt;char&lt;span&gt; &lt;/span&gt;*path;&lt;/div&gt;&lt;div&gt;&lt;span&gt; &lt;/span&gt;char&lt;span&gt; &lt;/span&gt;**paths;&lt;/div&gt;&lt;div&gt;&lt;br&gt;&lt;/div&gt;&lt;div&gt;&lt;span&gt; &lt;/span&gt;path = 0;&lt;/div&gt;&lt;div&gt;&lt;span&gt; &lt;/span&gt;paths = 0;&lt;/div&gt;&lt;div&gt;&lt;span&gt; &lt;/span&gt;while (*envp)&lt;/div&gt;&lt;div&gt;&lt;span&gt; &lt;/span&gt;{&lt;/div&gt;&lt;div&gt;&lt;span&gt;  &lt;/span&gt;&lt;span style=&quot;white-space: pre&quot;&gt; &lt;/span&gt;path = *envp;&lt;/div&gt;&lt;div&gt;&lt;span&gt;  &lt;/span&gt;&lt;span style=&quot;white-space: pre&quot;&gt; &lt;/span&gt;if (ft_strlen(path) &amp;gt; 4)&lt;/div&gt;&lt;div&gt;&lt;span&gt;  &lt;/span&gt;&lt;span style=&quot;white-space: pre&quot;&gt; &lt;/span&gt;{&lt;/div&gt;&lt;div&gt;&lt;span&gt;   &lt;/span&gt;&lt;span style=&quot;white-space: pre&quot;&gt; &lt;/span&gt;&lt;span style=&quot;white-space: pre&quot;&gt; &lt;/span&gt;if (path[0] == &#39;P&#39; &amp;amp;&amp;amp; path[1] == &#39;A&#39; &amp;amp;&amp;amp; \&lt;/div&gt;&lt;div&gt;&lt;span&gt;     &lt;/span&gt;&lt;span style=&quot;white-space: pre&quot;&gt; &lt;/span&gt;&lt;span style=&quot;white-space: pre&quot;&gt; &lt;/span&gt;path[2] == &#39;T&#39; &amp;amp;&amp;amp; path[3] == &#39;H&#39;)&lt;/div&gt;&lt;div&gt;&lt;span&gt;   &lt;/span&gt;&lt;span style=&quot;white-space: pre&quot;&gt; &lt;/span&gt;&lt;span style=&quot;white-space: pre&quot;&gt; &lt;/span&gt;{&lt;/div&gt;&lt;div&gt;&lt;span&gt;    &lt;/span&gt;&lt;span style=&quot;white-space: pre&quot;&gt; &lt;/span&gt;&lt;span style=&quot;white-space: pre&quot;&gt; &lt;/span&gt;&lt;span style=&quot;white-space: pre&quot;&gt; &lt;/span&gt;path = *envp;&lt;/div&gt;&lt;div&gt;&lt;span&gt;    &lt;/span&gt;&lt;span style=&quot;white-space: pre&quot;&gt; &lt;/span&gt;&lt;span style=&quot;white-space: pre&quot;&gt; &lt;/span&gt;&lt;span style=&quot;white-space: pre&quot;&gt; &lt;/span&gt;paths = ft_split(path + 5, &#39;:&#39;);&lt;/div&gt;&lt;div&gt;&lt;span&gt;    &lt;/span&gt;&lt;span style=&quot;white-space: pre&quot;&gt; &lt;/span&gt;&lt;span style=&quot;white-space: pre&quot;&gt; &lt;/span&gt;&lt;span style=&quot;white-space: pre&quot;&gt; &lt;/span&gt;if (!paths)&lt;/div&gt;&lt;div&gt;&lt;span&gt;     &lt;/span&gt;&lt;span style=&quot;white-space: pre&quot;&gt; &lt;/span&gt;&lt;span style=&quot;white-space: pre&quot;&gt; &lt;/span&gt;&lt;span style=&quot;white-space: pre&quot;&gt; &lt;/span&gt;&lt;span style=&quot;white-space: pre&quot;&gt; &lt;/span&gt;error_occur_perror(SPLIT_ERR);&lt;/div&gt;&lt;div&gt;&lt;span&gt;    &lt;/span&gt;&lt;span style=&quot;white-space: pre&quot;&gt; &lt;/span&gt;&lt;span style=&quot;white-space: pre&quot;&gt; &lt;/span&gt;&lt;span style=&quot;white-space: pre&quot;&gt; &lt;/span&gt;break ;&lt;/div&gt;&lt;div&gt;&lt;span&gt;   &lt;/span&gt;&lt;span style=&quot;white-space: pre&quot;&gt; &lt;/span&gt;&lt;span style=&quot;white-space: pre&quot;&gt; &lt;/span&gt;}&lt;/div&gt;&lt;div&gt;&lt;span&gt;  &lt;/span&gt;&lt;span style=&quot;white-space: pre&quot;&gt; &lt;/span&gt;}&lt;/div&gt;&lt;div&gt;&lt;span&gt;  &lt;/span&gt;&lt;span style=&quot;white-space: pre&quot;&gt; &lt;/span&gt;envp++;&lt;/div&gt;&lt;div&gt;&lt;span&gt; &lt;/span&gt;}&lt;/div&gt;&lt;div&gt;&lt;span&gt; &lt;/span&gt;return (paths);&lt;/div&gt;" style="text;html=1;strokeColor=none;fillColor=none;align=left;verticalAlign=middle;whiteSpace=wrap;rounded=0;" parent="u2uQaywFyPR_KE_2P75B-8" vertex="1">
          <mxGeometry y="26" width="310" height="334" as="geometry" />
        </mxCell>
        <mxCell id="u2uQaywFyPR_KE_2P75B-10" value="int init_envp_file(char *envp[])" style="swimlane;fontStyle=2;align=center;verticalAlign=top;childLayout=stackLayout;horizontal=1;startSize=26;horizontalStack=0;resizeParent=1;resizeLast=0;collapsible=1;marginBottom=0;rounded=0;shadow=0;strokeWidth=1;" parent="WIyWlLk6GJQsqaUBKTNV-1" vertex="1">
          <mxGeometry x="2695" y="446" width="400" height="265" as="geometry">
            <mxRectangle x="230" y="140" width="160" height="26" as="alternateBounds" />
          </mxGeometry>
        </mxCell>
        <mxCell id="u2uQaywFyPR_KE_2P75B-11" value="&lt;div&gt;int&lt;span&gt; &lt;/span&gt;fd;&lt;/div&gt;&lt;div&gt;&lt;span&gt; &lt;/span&gt;int&lt;span&gt; &lt;/span&gt;idx;&lt;/div&gt;&lt;div&gt;&lt;br&gt;&lt;/div&gt;&lt;div&gt;&lt;span&gt; &lt;/span&gt;fd = open(ENV_FILE, O_WRONLY | O_CREAT | O_TRUNC, S_IRWXU);&lt;/div&gt;&lt;div&gt;&lt;span&gt; &lt;/span&gt;if (fd == -1)&lt;/div&gt;&lt;div&gt;&lt;span&gt;  &lt;/span&gt;&lt;span style=&quot;white-space: pre&quot;&gt; &lt;/span&gt;return (error_occur_perror(FILE_OPEN_ERR));&lt;/div&gt;&lt;div&gt;&lt;span&gt; &lt;/span&gt;idx = 0;&lt;/div&gt;&lt;div&gt;&lt;span&gt; &lt;/span&gt;while (envp[idx])&lt;/div&gt;&lt;div&gt;&lt;span&gt; &lt;/span&gt;{&lt;/div&gt;&lt;div&gt;&lt;span&gt;  &lt;/span&gt;&lt;span style=&quot;white-space: pre&quot;&gt; &lt;/span&gt;ft_putstr_fd(envp[idx], fd);&lt;/div&gt;&lt;div&gt;&lt;span&gt;  &lt;/span&gt;&lt;span style=&quot;white-space: pre&quot;&gt; &lt;/span&gt;idx++;&lt;/div&gt;&lt;div&gt;&lt;span&gt;  &lt;/span&gt;&lt;span style=&quot;white-space: pre&quot;&gt; &lt;/span&gt;if (envp[idx])&lt;/div&gt;&lt;div&gt;&lt;span&gt;   &lt;/span&gt;&lt;span style=&quot;white-space: pre&quot;&gt; &lt;span style=&quot;white-space: pre&quot;&gt; &lt;/span&gt;&lt;/span&gt;ft_putchar_fd(&#39;\n&#39;, fd);&lt;/div&gt;&lt;div&gt;&lt;span&gt; &lt;/span&gt;}&lt;/div&gt;&lt;div&gt;&lt;span&gt; &lt;/span&gt;ft_close(fd);&lt;/div&gt;&lt;div&gt;&lt;span&gt; &lt;/span&gt;return (1);&lt;/div&gt;" style="text;html=1;strokeColor=none;fillColor=none;align=left;verticalAlign=middle;whiteSpace=wrap;rounded=0;" parent="u2uQaywFyPR_KE_2P75B-10" vertex="1">
          <mxGeometry y="26" width="400" height="234" as="geometry" />
        </mxCell>
        <mxCell id="u2uQaywFyPR_KE_2P75B-12" value="int copy_envp(t_info *info)" style="swimlane;fontStyle=2;align=center;verticalAlign=top;childLayout=stackLayout;horizontal=1;startSize=26;horizontalStack=0;resizeParent=1;resizeLast=0;collapsible=1;marginBottom=0;rounded=0;shadow=0;strokeWidth=1;" parent="WIyWlLk6GJQsqaUBKTNV-1" vertex="1">
          <mxGeometry x="2805" y="790" width="180" height="100" as="geometry">
            <mxRectangle x="230" y="140" width="160" height="26" as="alternateBounds" />
          </mxGeometry>
        </mxCell>
        <mxCell id="u2uQaywFyPR_KE_2P75B-13" value="&lt;div&gt;clear_envp_info(info);&lt;/div&gt;&lt;div&gt;&lt;span&gt; &lt;/span&gt;if (!count_envp_len(info))&lt;/div&gt;&lt;div&gt;&lt;span&gt;  &lt;/span&gt;&lt;span style=&quot;white-space: pre&quot;&gt; &lt;/span&gt;return (0);&lt;/div&gt;&lt;div&gt;&lt;span&gt; &lt;/span&gt;return (file_to_envp(info));&lt;/div&gt;" style="text;html=1;strokeColor=none;fillColor=none;align=left;verticalAlign=middle;whiteSpace=wrap;rounded=0;" parent="u2uQaywFyPR_KE_2P75B-12" vertex="1">
          <mxGeometry y="26" width="180" height="74" as="geometry" />
        </mxCell>
        <mxCell id="u2uQaywFyPR_KE_2P75B-14" value="void clear_envp_info(t_info *info)" style="swimlane;fontStyle=2;align=center;verticalAlign=top;childLayout=stackLayout;horizontal=1;startSize=26;horizontalStack=0;resizeParent=1;resizeLast=0;collapsible=1;marginBottom=0;rounded=0;shadow=0;strokeWidth=1;" parent="WIyWlLk6GJQsqaUBKTNV-1" vertex="1">
          <mxGeometry x="3567" y="770" width="310" height="160" as="geometry">
            <mxRectangle x="230" y="140" width="160" height="26" as="alternateBounds" />
          </mxGeometry>
        </mxCell>
        <mxCell id="u2uQaywFyPR_KE_2P75B-15" value="&lt;div&gt;int&lt;span&gt; &lt;/span&gt;i;&lt;/div&gt;&lt;div&gt;&lt;br&gt;&lt;/div&gt;&lt;div&gt;&lt;span&gt; &lt;/span&gt;if (!info-&amp;gt;envp)&lt;/div&gt;&lt;div&gt;&lt;span&gt;  &lt;/span&gt;&lt;span style=&quot;white-space: pre&quot;&gt; &lt;/span&gt;return ;&lt;/div&gt;&lt;div&gt;&lt;span&gt; &lt;/span&gt;i = 0;&lt;/div&gt;&lt;div&gt;&lt;span&gt; &lt;/span&gt;while (info-&amp;gt;envp[i])&lt;/div&gt;&lt;div&gt;&lt;span&gt;  &lt;/span&gt;&lt;span style=&quot;white-space: pre&quot;&gt; &lt;/span&gt;ft_free(info-&amp;gt;envp[i++]);&lt;/div&gt;&lt;div&gt;&lt;span&gt; &lt;/span&gt;ft_free(info-&amp;gt;envp);&lt;/div&gt;&lt;div&gt;&lt;span&gt; &lt;/span&gt;info-&amp;gt;envp_cnt = 0;&lt;/div&gt;" style="text;html=1;strokeColor=none;fillColor=none;align=left;verticalAlign=middle;whiteSpace=wrap;rounded=0;" parent="u2uQaywFyPR_KE_2P75B-14" vertex="1">
          <mxGeometry y="26" width="310" height="134" as="geometry" />
        </mxCell>
        <mxCell id="u2uQaywFyPR_KE_2P75B-18" value="int count_envp_len(t_info *info)" style="swimlane;fontStyle=2;align=center;verticalAlign=top;childLayout=stackLayout;horizontal=1;startSize=26;horizontalStack=0;resizeParent=1;resizeLast=0;collapsible=1;marginBottom=0;rounded=0;shadow=0;strokeWidth=1;" parent="WIyWlLk6GJQsqaUBKTNV-1" vertex="1">
          <mxGeometry x="3567" y="1040" width="293" height="250" as="geometry">
            <mxRectangle x="230" y="140" width="160" height="26" as="alternateBounds" />
          </mxGeometry>
        </mxCell>
        <mxCell id="u2uQaywFyPR_KE_2P75B-19" value="&lt;div&gt;int&lt;span&gt;  &lt;/span&gt;fd;&lt;/div&gt;&lt;div&gt;&lt;span&gt; &lt;/span&gt;char&lt;span&gt; &lt;/span&gt;*line;&lt;/div&gt;&lt;div&gt;&lt;br&gt;&lt;/div&gt;&lt;div&gt;&lt;span&gt; &lt;/span&gt;fd = open(ENV_FILE, O_RDONLY);&lt;/div&gt;&lt;div&gt;&lt;span&gt; &lt;/span&gt;if (fd == -1)&lt;/div&gt;&lt;div&gt;&lt;span&gt;  &lt;/span&gt;&lt;span style=&quot;white-space: pre&quot;&gt; &lt;/span&gt;return (error_occur_perror(FILE_OPEN_ERR));&lt;/div&gt;&lt;div&gt;&lt;span&gt; &lt;/span&gt;while (get_next_line(fd, &amp;amp;line) &amp;gt; 0)&lt;/div&gt;&lt;div&gt;&lt;span&gt; &lt;/span&gt;{&lt;/div&gt;&lt;div&gt;&lt;span&gt;  &lt;/span&gt;&lt;span style=&quot;white-space: pre&quot;&gt; &lt;/span&gt;info-&amp;gt;envp_cnt++;&lt;/div&gt;&lt;div&gt;&lt;span&gt;  &lt;/span&gt;&lt;span style=&quot;white-space: pre&quot;&gt; &lt;/span&gt;ft_free(line);&lt;/div&gt;&lt;div&gt;&lt;span&gt; &lt;/span&gt;}&lt;/div&gt;&lt;div&gt;&lt;span&gt; &lt;/span&gt;info-&amp;gt;envp_cnt++;&lt;/div&gt;&lt;div&gt;&lt;span&gt; &lt;/span&gt;ft_free(line);&lt;/div&gt;&lt;div&gt;&lt;span&gt; &lt;/span&gt;ft_close(fd);&lt;/div&gt;&lt;div&gt;&lt;span&gt; &lt;/span&gt;return (1);&lt;/div&gt;" style="text;html=1;strokeColor=none;fillColor=none;align=left;verticalAlign=middle;whiteSpace=wrap;rounded=0;" parent="u2uQaywFyPR_KE_2P75B-18" vertex="1">
          <mxGeometry y="26" width="293" height="224" as="geometry" />
        </mxCell>
        <mxCell id="u2uQaywFyPR_KE_2P75B-20" value="int file_to_envp(t_info *info)" style="swimlane;fontStyle=2;align=center;verticalAlign=top;childLayout=stackLayout;horizontal=1;startSize=26;horizontalStack=0;resizeParent=1;resizeLast=0;collapsible=1;marginBottom=0;rounded=0;shadow=0;strokeWidth=1;" parent="WIyWlLk6GJQsqaUBKTNV-1" vertex="1">
          <mxGeometry x="3567" y="1350" width="360" height="420" as="geometry">
            <mxRectangle x="230" y="140" width="160" height="26" as="alternateBounds" />
          </mxGeometry>
        </mxCell>
        <mxCell id="u2uQaywFyPR_KE_2P75B-21" value="&lt;div&gt;int&lt;span&gt;  &lt;/span&gt;fd;&lt;/div&gt;&lt;div&gt;&lt;span&gt; &lt;/span&gt;int&lt;span&gt;  &lt;/span&gt;idx;&lt;/div&gt;&lt;div&gt;&lt;span&gt; &lt;/span&gt;char&lt;span&gt; &lt;/span&gt;*line;&lt;/div&gt;&lt;div&gt;&lt;br&gt;&lt;/div&gt;&lt;div&gt;&lt;span&gt; &lt;/span&gt;info-&amp;gt;envp = (char **)malloc(sizeof(char *) * (info-&amp;gt;envp_cnt + 1));&lt;/div&gt;&lt;div&gt;&lt;span&gt; &lt;/span&gt;if (!info-&amp;gt;envp)&lt;/div&gt;&lt;div&gt;&lt;span&gt;  &lt;/span&gt;&lt;span style=&quot;white-space: pre&quot;&gt; &lt;/span&gt;return (0);&lt;/div&gt;&lt;div&gt;&lt;span&gt; &lt;/span&gt;info-&amp;gt;envp[info-&amp;gt;envp_cnt] = 0;&lt;/div&gt;&lt;div&gt;&lt;span&gt; &lt;/span&gt;fd = open(ENV_FILE, O_RDONLY);&lt;/div&gt;&lt;div&gt;&lt;span&gt; &lt;/span&gt;if (fd == -1)&lt;/div&gt;&lt;div&gt;&lt;span&gt;  &lt;/span&gt;&lt;span style=&quot;white-space: pre&quot;&gt; &lt;/span&gt;return (error_occur_perror(FILE_OPEN_ERR));&lt;/div&gt;&lt;div&gt;&lt;span&gt; &lt;/span&gt;idx = 0;&lt;/div&gt;&lt;div&gt;&lt;span&gt; &lt;/span&gt;while (get_next_line(fd, &amp;amp;line) &amp;gt; 0 &amp;amp;&amp;amp; idx &amp;lt; info-&amp;gt;envp_cnt)&lt;/div&gt;&lt;div&gt;&lt;span&gt; &lt;/span&gt;{&lt;/div&gt;&lt;div&gt;&lt;span&gt;  &lt;/span&gt;&lt;span style=&quot;white-space: pre&quot;&gt; &lt;/span&gt;info-&amp;gt;envp[idx] = line;&lt;/div&gt;&lt;div&gt;&lt;span&gt;  &lt;/span&gt;&lt;span style=&quot;white-space: pre&quot;&gt; &lt;/span&gt;if (!info-&amp;gt;envp[idx])&lt;/div&gt;&lt;div&gt;&lt;span&gt;   &lt;/span&gt;&lt;span style=&quot;white-space: pre&quot;&gt; &lt;/span&gt;&lt;span style=&quot;white-space: pre&quot;&gt; &lt;/span&gt;return (0);&lt;/div&gt;&lt;div&gt;&lt;span&gt;  &lt;/span&gt;&lt;span style=&quot;white-space: pre&quot;&gt; &lt;/span&gt;idx++;&lt;/div&gt;&lt;div&gt;&lt;span&gt; &lt;/span&gt;}&lt;/div&gt;&lt;div&gt;&lt;span&gt; &lt;/span&gt;info-&amp;gt;envp[idx] = ft_strdup(line);&lt;/div&gt;&lt;div&gt;&lt;span&gt; &lt;/span&gt;if (!info-&amp;gt;envp[idx])&lt;/div&gt;&lt;div&gt;&lt;span&gt;  &lt;/span&gt;&lt;span style=&quot;white-space: pre&quot;&gt; &lt;/span&gt;return (0);&lt;/div&gt;&lt;div&gt;&lt;span&gt; &lt;/span&gt;ft_free(line);&lt;/div&gt;&lt;div&gt;&lt;span&gt; &lt;/span&gt;ft_close(fd);&lt;/div&gt;&lt;div&gt;&lt;span&gt; &lt;/span&gt;return (1);&lt;/div&gt;" style="text;html=1;strokeColor=none;fillColor=none;align=left;verticalAlign=middle;whiteSpace=wrap;rounded=0;" parent="u2uQaywFyPR_KE_2P75B-20" vertex="1">
          <mxGeometry y="26" width="360" height="394" as="geometry" />
        </mxCell>
        <mxCell id="u2uQaywFyPR_KE_2P75B-22" value="frees" style="swimlane;fontStyle=2;align=center;verticalAlign=top;childLayout=stackLayout;horizontal=1;startSize=26;horizontalStack=0;resizeParent=1;resizeLast=0;collapsible=1;marginBottom=0;rounded=0;shadow=0;strokeWidth=1;" parent="WIyWlLk6GJQsqaUBKTNV-1" vertex="1">
          <mxGeometry x="640" y="113" width="310" height="820" as="geometry">
            <mxRectangle x="230" y="140" width="160" height="26" as="alternateBounds" />
          </mxGeometry>
        </mxCell>
        <mxCell id="u2uQaywFyPR_KE_2P75B-23" value="&lt;div&gt;void&lt;span&gt; &lt;/span&gt;paths_clear(t_info *info)&lt;/div&gt;&lt;div&gt;{&lt;/div&gt;&lt;div&gt;&lt;span&gt; &lt;/span&gt;&lt;span style=&quot;white-space: pre&quot;&gt; &lt;/span&gt;int&lt;span&gt; &lt;/span&gt;i;&lt;/div&gt;&lt;div&gt;&lt;br&gt;&lt;/div&gt;&lt;div&gt;&lt;span&gt; &lt;/span&gt;&lt;span style=&quot;white-space: pre&quot;&gt; &lt;/span&gt;i = 0;&lt;/div&gt;&lt;div&gt;&lt;span&gt; &lt;/span&gt;&lt;span style=&quot;white-space: pre&quot;&gt; &lt;/span&gt;if (info-&amp;gt;paths)&lt;/div&gt;&lt;div&gt;&lt;span style=&quot;white-space: pre&quot;&gt; &lt;/span&gt;{&lt;/div&gt;&lt;div&gt;&lt;span&gt;  &lt;/span&gt;&lt;span style=&quot;white-space: pre&quot;&gt; &lt;span style=&quot;white-space: pre&quot;&gt; &lt;/span&gt;&lt;/span&gt;while (info-&amp;gt;paths[i])&lt;/div&gt;&lt;div&gt;&lt;span&gt;  &lt;/span&gt;&lt;span style=&quot;white-space: pre&quot;&gt; &lt;span style=&quot;white-space: pre&quot;&gt; &lt;/span&gt;&lt;/span&gt;{&lt;/div&gt;&lt;div&gt;&lt;span&gt;   &lt;/span&gt;&lt;span style=&quot;white-space: pre&quot;&gt; &lt;span style=&quot;white-space: pre&quot;&gt; &lt;/span&gt;&lt;span style=&quot;white-space: pre&quot;&gt; &lt;/span&gt;&lt;/span&gt;ft_free(info-&amp;gt;paths[i]);&lt;/div&gt;&lt;div&gt;&lt;span&gt;   &lt;/span&gt;&lt;span style=&quot;white-space: pre&quot;&gt; &lt;span style=&quot;white-space: pre&quot;&gt; &lt;/span&gt;&lt;span style=&quot;white-space: pre&quot;&gt; &lt;/span&gt;&lt;/span&gt;i++;&lt;/div&gt;&lt;div&gt;&lt;span&gt;  &lt;/span&gt;&lt;span style=&quot;white-space: pre&quot;&gt; &lt;span style=&quot;white-space: pre&quot;&gt; &lt;/span&gt;&lt;/span&gt;}&lt;/div&gt;&lt;div&gt;&lt;span&gt;  &lt;/span&gt;&lt;span style=&quot;white-space: pre&quot;&gt; &lt;span style=&quot;white-space: pre&quot;&gt; &lt;/span&gt;&lt;/span&gt;ft_free(info-&amp;gt;paths);&lt;/div&gt;&lt;div&gt;&lt;span&gt; &lt;/span&gt;&lt;span style=&quot;white-space: pre&quot;&gt; &lt;/span&gt;}&lt;/div&gt;&lt;div&gt;}&lt;/div&gt;&lt;div&gt;&lt;br&gt;&lt;/div&gt;&lt;div&gt;void&lt;span&gt; &lt;/span&gt;ft_free(void *data)&lt;/div&gt;&lt;div&gt;{&lt;/div&gt;&lt;div&gt;&lt;span&gt; &lt;/span&gt;&lt;span style=&quot;white-space: pre&quot;&gt; &lt;/span&gt;if (!data)&lt;/div&gt;&lt;div&gt;&lt;span&gt;  &lt;/span&gt;&lt;span style=&quot;white-space: pre&quot;&gt; &lt;/span&gt;&lt;span style=&quot;white-space: pre&quot;&gt; &lt;/span&gt;return ;&lt;/div&gt;&lt;div&gt;&lt;span&gt; &lt;/span&gt;&lt;span style=&quot;white-space: pre&quot;&gt; &lt;/span&gt;free(data);&lt;/div&gt;&lt;div&gt;&lt;span&gt; &lt;/span&gt;&lt;span style=&quot;white-space: pre&quot;&gt; &lt;/span&gt;data = 0;&lt;/div&gt;&lt;div&gt;}&lt;/div&gt;&lt;div&gt;&lt;br&gt;&lt;/div&gt;&lt;div&gt;void&lt;span&gt; &lt;/span&gt;split_free(char **data)&lt;/div&gt;&lt;div&gt;{&lt;/div&gt;&lt;div&gt;&lt;span&gt; &lt;/span&gt;&lt;span style=&quot;white-space: pre&quot;&gt; &lt;/span&gt;int&lt;span&gt; &lt;/span&gt;i;&lt;/div&gt;&lt;div&gt;&lt;br&gt;&lt;/div&gt;&lt;div&gt;&lt;span&gt; &lt;/span&gt;&lt;span style=&quot;white-space: pre&quot;&gt; &lt;/span&gt;if (!data || !*data)&lt;/div&gt;&lt;div&gt;&lt;span&gt;  &lt;/span&gt;&lt;span style=&quot;white-space: pre&quot;&gt; &lt;/span&gt;&lt;span style=&quot;white-space: pre&quot;&gt; &lt;/span&gt;return ;&lt;/div&gt;&lt;div&gt;&lt;span&gt; &lt;/span&gt;&lt;span style=&quot;white-space: pre&quot;&gt; &lt;/span&gt;i = 0;&lt;/div&gt;&lt;div&gt;&lt;span&gt; &lt;/span&gt;&lt;span style=&quot;white-space: pre&quot;&gt; &lt;/span&gt;while (data[i])&lt;/div&gt;&lt;div&gt;&lt;span&gt;  &lt;/span&gt;&lt;span style=&quot;white-space: pre&quot;&gt; &lt;/span&gt;&lt;span style=&quot;white-space: pre&quot;&gt; &lt;/span&gt;ft_free(data[i++]);&lt;/div&gt;&lt;div&gt;&lt;span&gt; &lt;/span&gt;&lt;span style=&quot;white-space: pre&quot;&gt; &lt;/span&gt;free(data);&lt;/div&gt;&lt;div&gt;&lt;span&gt; &lt;/span&gt;&lt;span style=&quot;white-space: pre&quot;&gt; &lt;/span&gt;data = 0;&lt;/div&gt;&lt;div&gt;}&lt;/div&gt;&lt;div&gt;&lt;br&gt;&lt;/div&gt;&lt;div&gt;void&lt;span&gt; &lt;/span&gt;clear_data(t_info *info)&lt;/div&gt;&lt;div&gt;{&lt;/div&gt;&lt;div&gt;&lt;span&gt; &lt;/span&gt;&lt;span style=&quot;white-space: pre&quot;&gt; &lt;/span&gt;if (info-&amp;gt;commands)&lt;/div&gt;&lt;div&gt;&lt;span&gt;  &lt;/span&gt;&lt;span style=&quot;white-space: pre&quot;&gt; &lt;span style=&quot;white-space: pre&quot;&gt; &lt;/span&gt;&lt;/span&gt;ft_lstclear(&amp;amp;info-&amp;gt;commands, ft_free);&lt;/div&gt;&lt;div&gt;&lt;span&gt; &lt;/span&gt;&lt;span style=&quot;white-space: pre&quot;&gt; &lt;/span&gt;if (info-&amp;gt;redirect_lst)&lt;/div&gt;&lt;div&gt;&lt;span&gt;  &lt;/span&gt;&lt;span style=&quot;white-space: pre&quot;&gt; &lt;span style=&quot;white-space: pre&quot;&gt; &lt;/span&gt;&lt;/span&gt;ft_lstclear(&amp;amp;info-&amp;gt;redirect_lst, ft_free);&lt;/div&gt;&lt;div&gt;&lt;span&gt; &lt;/span&gt;&lt;span style=&quot;white-space: pre&quot;&gt; &lt;/span&gt;if (info-&amp;gt;commands_symbol)&lt;/div&gt;&lt;div&gt;&lt;span&gt;  &lt;/span&gt;&lt;span style=&quot;white-space: pre&quot;&gt; &lt;span style=&quot;white-space: pre&quot;&gt; &lt;/span&gt;&lt;/span&gt;ft_lstclear(&amp;amp;info-&amp;gt;commands_symbol, ft_free);&lt;/div&gt;&lt;div&gt;&lt;span&gt; &lt;/span&gt;&lt;span style=&quot;white-space: pre&quot;&gt; &lt;/span&gt;ft_close(info-&amp;gt;std_in);&lt;/div&gt;&lt;div&gt;}&lt;/div&gt;&lt;div&gt;&lt;br&gt;&lt;/div&gt;&lt;div&gt;void&lt;span&gt; &lt;/span&gt;clear_all_data(t_info *info)&lt;/div&gt;&lt;div&gt;{&lt;/div&gt;&lt;div&gt;&lt;span&gt; &lt;/span&gt;&lt;span style=&quot;white-space: pre&quot;&gt; &lt;/span&gt;paths_clear(info);&lt;/div&gt;&lt;div&gt;&lt;span&gt; &lt;/span&gt;&lt;span style=&quot;white-space: pre&quot;&gt; &lt;/span&gt;clear_envp_info(info);&lt;/div&gt;&lt;div&gt;&lt;span&gt; &lt;/span&gt;&lt;span style=&quot;white-space: pre&quot;&gt; &lt;/span&gt;clear_data(info);&lt;/div&gt;&lt;div&gt;&lt;span&gt; &lt;/span&gt;&lt;span style=&quot;white-space: pre&quot;&gt; &lt;/span&gt;remove_file();&lt;/div&gt;&lt;div&gt;}&lt;/div&gt;" style="text;html=1;strokeColor=none;fillColor=none;align=left;verticalAlign=middle;whiteSpace=wrap;rounded=0;" parent="u2uQaywFyPR_KE_2P75B-22" vertex="1">
          <mxGeometry y="26" width="310" height="794" as="geometry" />
        </mxCell>
        <mxCell id="u2uQaywFyPR_KE_2P75B-24" value="errors" style="swimlane;fontStyle=2;align=center;verticalAlign=top;childLayout=stackLayout;horizontal=1;startSize=26;horizontalStack=0;resizeParent=1;resizeLast=0;collapsible=1;marginBottom=0;rounded=0;shadow=0;strokeWidth=1;" parent="WIyWlLk6GJQsqaUBKTNV-1" vertex="1">
          <mxGeometry x="640" y="960" width="310" height="510" as="geometry">
            <mxRectangle x="230" y="140" width="160" height="26" as="alternateBounds" />
          </mxGeometry>
        </mxCell>
        <mxCell id="u2uQaywFyPR_KE_2P75B-25" value="&lt;div&gt;void&lt;span&gt; &lt;/span&gt;error_occur_perror_void(char *msg)&lt;/div&gt;&lt;div&gt;{&lt;/div&gt;&lt;div&gt;&lt;span&gt; &lt;/span&gt;&lt;span style=&quot;white-space: pre&quot;&gt; &lt;/span&gt;write(STDERR_FILENO, msg, ft_strlen(msg));&lt;/div&gt;&lt;div&gt;&lt;span&gt; &lt;/span&gt;&lt;span style=&quot;white-space: pre&quot;&gt; &lt;/span&gt;write(STDERR_FILENO, &quot;\n&quot;, 1);&lt;/div&gt;&lt;div&gt;}&lt;/div&gt;&lt;div&gt;&lt;br&gt;&lt;/div&gt;&lt;div&gt;int&lt;span&gt; &lt;/span&gt;error_occur_perror(char *msg)&lt;/div&gt;&lt;div&gt;{&lt;/div&gt;&lt;blockquote style=&quot;margin: 0 0 0 40px ; border: none ; padding: 0px&quot;&gt;&lt;div&gt;write(STDERR_FILENO, msg, ft_strlen(msg));&lt;/div&gt;&lt;div&gt;write(STDERR_FILENO, &quot;\n&quot;, 1);&lt;/div&gt;&lt;div&gt;return (0);&lt;/div&gt;&lt;/blockquote&gt;&lt;div&gt;}&lt;/div&gt;&lt;div&gt;&lt;br&gt;&lt;/div&gt;&lt;div&gt;int&lt;span&gt; &lt;/span&gt;stderr_print(char *cmd, char *param, char *msg)&lt;/div&gt;&lt;div&gt;{&lt;/div&gt;&lt;blockquote style=&quot;margin: 0 0 0 40px ; border: none ; padding: 0px&quot;&gt;&lt;div&gt;write(STDERR_FILENO, cmd, ft_strlen(cmd));&lt;/div&gt;&lt;div&gt;write(STDERR_FILENO, &quot;: &quot;, 2);&lt;/div&gt;&lt;div&gt;write(STDERR_FILENO, param, ft_strlen(param));&lt;/div&gt;&lt;div&gt;write(STDERR_FILENO, &quot;: &quot;, 2);&lt;/div&gt;&lt;div&gt;error_occur_perror(msg);&lt;/div&gt;&lt;div&gt;return (0);&lt;/div&gt;&lt;/blockquote&gt;&lt;div&gt;}&lt;/div&gt;&lt;div&gt;&lt;br&gt;&lt;/div&gt;&lt;div&gt;int&lt;span&gt; &lt;/span&gt;export_errror(char *param)&lt;/div&gt;&lt;div&gt;{&lt;/div&gt;&lt;blockquote style=&quot;margin: 0 0 0 40px ; border: none ; padding: 0px&quot;&gt;&lt;div&gt;write(STDERR_FILENO, SHELL_NAME, ft_strlen(SHELL_NAME));&lt;/div&gt;&lt;div&gt;write(STDERR_FILENO, &quot;: &quot;, 2);&lt;/div&gt;&lt;div&gt;write(STDERR_FILENO, &quot;export: `&quot;, 9);&lt;/div&gt;&lt;div&gt;ft_putstr_fd(param, STDERR_FILENO);&lt;/div&gt;&lt;div&gt;ft_putendl_fd(&quot;&#39;: not a valid identifier&quot;, STDERR_FILENO);&lt;/div&gt;&lt;div&gt;return (0);&lt;/div&gt;&lt;/blockquote&gt;&lt;div&gt;}&lt;/div&gt;" style="text;html=1;strokeColor=none;fillColor=none;align=left;verticalAlign=middle;whiteSpace=wrap;rounded=0;" parent="u2uQaywFyPR_KE_2P75B-24" vertex="1">
          <mxGeometry y="26" width="310" height="484" as="geometry" />
        </mxCell>
        <mxCell id="u2uQaywFyPR_KE_2P75B-26" value="void sigint_handler(int signo)" style="swimlane;fontStyle=2;align=center;verticalAlign=top;childLayout=stackLayout;horizontal=1;startSize=26;horizontalStack=0;resizeParent=1;resizeLast=0;collapsible=1;marginBottom=0;rounded=0;shadow=0;strokeWidth=1;" parent="WIyWlLk6GJQsqaUBKTNV-1" vertex="1">
          <mxGeometry x="2779" y="930" width="230" height="150" as="geometry">
            <mxRectangle x="230" y="140" width="160" height="26" as="alternateBounds" />
          </mxGeometry>
        </mxCell>
        <mxCell id="u2uQaywFyPR_KE_2P75B-27" value="&lt;div&gt;if (signo == SIGINT)&lt;/div&gt;&lt;div&gt;&lt;span&gt;{&lt;/span&gt;&lt;/div&gt;&lt;blockquote style=&quot;margin: 0 0 0 40px ; border: none ; padding: 0px&quot;&gt;&lt;div&gt;printf(&quot;\033[%dC&amp;nbsp; \n&quot;, rl_end + 2);&lt;/div&gt;&lt;div&gt;rl_on_new_line();&lt;/div&gt;&lt;div&gt;rl_replace_line(&quot;&quot;, 0);&lt;/div&gt;&lt;div&gt;rl_redisplay();&lt;/div&gt;&lt;/blockquote&gt;&lt;div&gt;&lt;span&gt; &lt;/span&gt;}&lt;/div&gt;" style="text;html=1;strokeColor=none;fillColor=none;align=left;verticalAlign=middle;whiteSpace=wrap;rounded=0;" parent="u2uQaywFyPR_KE_2P75B-26" vertex="1">
          <mxGeometry y="26" width="230" height="124" as="geometry" />
        </mxCell>
        <mxCell id="u2uQaywFyPR_KE_2P75B-29" value="int check_input(char *input, t_info *info)" style="swimlane;fontStyle=2;align=center;verticalAlign=top;childLayout=stackLayout;horizontal=1;startSize=26;horizontalStack=0;resizeParent=1;resizeLast=0;collapsible=1;marginBottom=0;rounded=0;shadow=0;strokeWidth=1;" parent="WIyWlLk6GJQsqaUBKTNV-1" vertex="1">
          <mxGeometry x="1920" y="1270" width="250" height="220" as="geometry">
            <mxRectangle x="230" y="140" width="160" height="26" as="alternateBounds" />
          </mxGeometry>
        </mxCell>
        <mxCell id="u2uQaywFyPR_KE_2P75B-30" value="&lt;div&gt;int&lt;span&gt; &lt;/span&gt;i;&lt;/div&gt;&lt;div&gt;&lt;br&gt;&lt;/div&gt;&lt;div&gt;&lt;span&gt; &lt;/span&gt;if (!input)&lt;/div&gt;&lt;div&gt;&lt;span&gt;  &lt;/span&gt;&lt;span style=&quot;white-space: pre&quot;&gt; &lt;/span&gt;ctrl_d_handler(info);&lt;/div&gt;&lt;div&gt;&lt;span&gt; &lt;/span&gt;i = 0;&lt;/div&gt;&lt;div&gt;&lt;span&gt; &lt;/span&gt;while (input[i] == &#39; &#39;)&lt;/div&gt;&lt;blockquote style=&quot;margin: 0 0 0 40px ; border: none ; padding: 0px&quot;&gt;&lt;div&gt;i++;&lt;/div&gt;&lt;/blockquote&gt;&lt;div&gt;&lt;span&gt; &lt;/span&gt;if (!input[i])&lt;/div&gt;&lt;div&gt;&lt;span&gt;{&lt;/span&gt;&lt;/div&gt;&lt;blockquote style=&quot;margin: 0 0 0 40px ; border: none ; padding: 0px&quot;&gt;&lt;div&gt;free(input);&lt;/div&gt;&lt;div&gt;return (0);&lt;/div&gt;&lt;/blockquote&gt;&lt;div&gt;&lt;span&gt; &lt;/span&gt;}&lt;/div&gt;&lt;div&gt;&lt;span&gt; &lt;/span&gt;return (1);&lt;/div&gt;" style="text;html=1;strokeColor=none;fillColor=none;align=left;verticalAlign=middle;whiteSpace=wrap;rounded=0;" parent="u2uQaywFyPR_KE_2P75B-29" vertex="1">
          <mxGeometry y="26" width="250" height="194" as="geometry" />
        </mxCell>
        <mxCell id="u2uQaywFyPR_KE_2P75B-31" value="void ctrl_d_handler(t_info *info)" style="swimlane;fontStyle=2;align=center;verticalAlign=top;childLayout=stackLayout;horizontal=1;startSize=26;horizontalStack=0;resizeParent=1;resizeLast=0;collapsible=1;marginBottom=0;rounded=0;shadow=0;strokeWidth=1;" parent="WIyWlLk6GJQsqaUBKTNV-1" vertex="1">
          <mxGeometry x="2746" y="1320" width="251" height="110" as="geometry">
            <mxRectangle x="230" y="140" width="160" height="26" as="alternateBounds" />
          </mxGeometry>
        </mxCell>
        <mxCell id="u2uQaywFyPR_KE_2P75B-32" value="&lt;div&gt;ft_putstr_fd(&quot;\033[1A&quot;, STDOUT_FILENO);&lt;/div&gt;&lt;div&gt;&lt;span&gt; &lt;/span&gt;ft_putstr_fd(&quot;\033[2C&quot;, STDOUT_FILENO);&lt;/div&gt;&lt;div&gt;&lt;span&gt; &lt;/span&gt;printf(&quot;exit\n&quot;);&lt;/div&gt;&lt;div&gt;&lt;span&gt; &lt;/span&gt;clear_all_data(info);&lt;/div&gt;&lt;div&gt;&lt;span&gt; &lt;/span&gt;exit(0);&lt;/div&gt;" style="text;html=1;strokeColor=none;fillColor=none;align=left;verticalAlign=middle;whiteSpace=wrap;rounded=0;" parent="u2uQaywFyPR_KE_2P75B-31" vertex="1">
          <mxGeometry y="26" width="251" height="84" as="geometry" />
        </mxCell>
        <mxCell id="u2uQaywFyPR_KE_2P75B-33" value="int make_command_list(t_info *info, char *input)" style="swimlane;fontStyle=2;align=center;verticalAlign=top;childLayout=stackLayout;horizontal=1;startSize=26;horizontalStack=0;resizeParent=1;resizeLast=0;collapsible=1;marginBottom=0;rounded=0;shadow=0;strokeWidth=1;" parent="WIyWlLk6GJQsqaUBKTNV-1" vertex="1">
          <mxGeometry x="1890" y="1710" width="397" height="400" as="geometry">
            <mxRectangle x="230" y="140" width="160" height="26" as="alternateBounds" />
          </mxGeometry>
        </mxCell>
        <mxCell id="u2uQaywFyPR_KE_2P75B-34" value="&lt;div&gt;int&lt;span&gt; &lt;/span&gt;s;&lt;/div&gt;&lt;div&gt;&lt;span&gt; &lt;/span&gt;int&lt;span&gt; &lt;/span&gt;e;&lt;/div&gt;&lt;div&gt;&lt;span&gt; &lt;/span&gt;int&lt;span&gt; &lt;/span&gt;len;&lt;/div&gt;&lt;div&gt;&lt;br&gt;&lt;/div&gt;&lt;div&gt;&lt;span&gt; &lt;/span&gt;len = ft_strlen(input);&lt;/div&gt;&lt;div&gt;&lt;span&gt; &lt;/span&gt;init_default(info, input, &amp;amp;s, &amp;amp;e);&lt;/div&gt;&lt;div&gt;&lt;span&gt; &lt;/span&gt;while (e &amp;lt; len &amp;amp;&amp;amp; input[e])&lt;/div&gt;&lt;div&gt;&lt;span&gt;{&lt;/span&gt;&lt;/div&gt;&lt;blockquote style=&quot;margin: 0 0 0 40px ; border: none ; padding: 0px&quot;&gt;&lt;div&gt;if (is_quotation(input[e]) &amp;amp;&amp;amp; !move_end_point(input, &amp;amp;e, input[e]))&lt;/div&gt;&lt;div&gt;&lt;span style=&quot;white-space: pre&quot;&gt; &lt;/span&gt;return (2);&lt;/div&gt;&lt;div&gt;else if (input[e] == PIPE)&lt;/div&gt;&lt;div&gt;{&lt;/div&gt;&lt;div&gt;&lt;span style=&quot;white-space: pre&quot;&gt; &lt;/span&gt;if (!append_pipe_command(info, input, &amp;amp;s, &amp;amp;e))&lt;/div&gt;&lt;div&gt;&lt;span style=&quot;white-space: pre&quot;&gt; &lt;/span&gt;&lt;span style=&quot;white-space: pre&quot;&gt; &lt;/span&gt;return (0);&lt;/div&gt;&lt;div&gt;}&lt;/div&gt;&lt;div&gt;else if (input[e] == &#39;&amp;amp;&#39;)&lt;/div&gt;&lt;div&gt;{&lt;/div&gt;&lt;div&gt;&lt;span style=&quot;white-space: pre&quot;&gt; &lt;/span&gt;if (!append_amper_command(info, input, &amp;amp;s, &amp;amp;e))&lt;/div&gt;&lt;div&gt;&lt;span style=&quot;white-space: pre&quot;&gt; &lt;/span&gt;&lt;span style=&quot;white-space: pre&quot;&gt; &lt;/span&gt;return (0);&lt;/div&gt;&lt;div&gt;}&lt;/div&gt;&lt;div&gt;e++;&lt;/div&gt;&lt;/blockquote&gt;&lt;div&gt;&lt;span&gt; &lt;/span&gt;}&lt;/div&gt;&lt;div&gt;&lt;span&gt; &lt;/span&gt;if (!append_command(info, input, s, e))&lt;/div&gt;&lt;div&gt;&lt;span&gt;  &lt;/span&gt;&lt;span style=&quot;white-space: pre&quot;&gt; &lt;/span&gt;return (0);&lt;/div&gt;&lt;div&gt;&lt;span&gt; &lt;/span&gt;return (1);&lt;/div&gt;" style="text;html=1;strokeColor=none;fillColor=none;align=left;verticalAlign=middle;whiteSpace=wrap;rounded=0;" parent="u2uQaywFyPR_KE_2P75B-33" vertex="1">
          <mxGeometry y="26" width="397" height="374" as="geometry" />
        </mxCell>
        <mxCell id="u2uQaywFyPR_KE_2P75B-35" value="int init_default(t_info *info, char *input, int *s, int *e)" style="swimlane;fontStyle=2;align=center;verticalAlign=top;childLayout=stackLayout;horizontal=1;startSize=26;horizontalStack=0;resizeParent=1;resizeLast=0;collapsible=1;marginBottom=0;rounded=0;shadow=0;strokeWidth=1;" parent="WIyWlLk6GJQsqaUBKTNV-1" vertex="1">
          <mxGeometry x="2706" y="1790" width="330" height="200" as="geometry">
            <mxRectangle x="230" y="140" width="160" height="26" as="alternateBounds" />
          </mxGeometry>
        </mxCell>
        <mxCell id="u2uQaywFyPR_KE_2P75B-36" value="&lt;div&gt;info-&amp;gt;command_cnt = 0;&lt;/div&gt;&lt;div&gt;&lt;span&gt; &lt;/span&gt;info-&amp;gt;is_builtin = -1;&lt;/div&gt;&lt;div&gt;&lt;span&gt; &lt;/span&gt;if (pipe(info-&amp;gt;pipe_out) == -1)&lt;/div&gt;&lt;div&gt;&lt;span&gt;  &lt;/span&gt;&lt;span style=&quot;white-space: pre&quot;&gt; &lt;/span&gt;return (error_occur_perror(PIPE_ERR));&lt;/div&gt;&lt;div&gt;&lt;span&gt; &lt;/span&gt;info-&amp;gt;std_in = dup(STDIN_FILENO);&lt;/div&gt;&lt;div&gt;&lt;span&gt; &lt;/span&gt;if (info-&amp;gt;std_in == -1)&lt;/div&gt;&lt;div&gt;&lt;span&gt;  &lt;/span&gt;&lt;span style=&quot;white-space: pre&quot;&gt; &lt;/span&gt;return (error_occur_perror(&quot;dup&quot;));&lt;/div&gt;&lt;div&gt;&lt;span&gt; &lt;/span&gt;info-&amp;gt;input = input;&lt;/div&gt;&lt;div&gt;&lt;span&gt; &lt;/span&gt;*s = 0;&lt;/div&gt;&lt;div&gt;&lt;span&gt; &lt;/span&gt;*e = 0;&lt;/div&gt;&lt;div&gt;&lt;span&gt; &lt;/span&gt;return (1);&lt;/div&gt;" style="text;html=1;strokeColor=none;fillColor=none;align=left;verticalAlign=middle;whiteSpace=wrap;rounded=0;" parent="u2uQaywFyPR_KE_2P75B-35" vertex="1">
          <mxGeometry y="26" width="330" height="174" as="geometry" />
        </mxCell>
        <mxCell id="u2uQaywFyPR_KE_2P75B-37" value="int is_quotation(char c)" style="swimlane;fontStyle=2;align=center;verticalAlign=top;childLayout=stackLayout;horizontal=1;startSize=26;horizontalStack=0;resizeParent=1;resizeLast=0;collapsible=1;marginBottom=0;rounded=0;shadow=0;strokeWidth=1;" parent="WIyWlLk6GJQsqaUBKTNV-1" vertex="1">
          <mxGeometry x="2706.5" y="2030" width="250" height="80" as="geometry">
            <mxRectangle x="230" y="140" width="160" height="26" as="alternateBounds" />
          </mxGeometry>
        </mxCell>
        <mxCell id="u2uQaywFyPR_KE_2P75B-38" value="&lt;div&gt;if (c == SINGLE_Q || c == DOUBLE_Q)&lt;/div&gt;&lt;div&gt;&lt;span&gt;  &lt;/span&gt;&lt;span style=&quot;white-space: pre&quot;&gt; &lt;/span&gt;return (1);&lt;/div&gt;&lt;div&gt;&lt;span&gt; &lt;/span&gt;return (0);&lt;/div&gt;" style="text;html=1;strokeColor=none;fillColor=none;align=left;verticalAlign=middle;whiteSpace=wrap;rounded=0;" parent="u2uQaywFyPR_KE_2P75B-37" vertex="1">
          <mxGeometry y="26" width="250" height="54" as="geometry" />
        </mxCell>
        <mxCell id="u2uQaywFyPR_KE_2P75B-39" value="int move_end_point(char *line, int *e, char end_c)" style="swimlane;fontStyle=2;align=center;verticalAlign=top;childLayout=stackLayout;horizontal=1;startSize=26;horizontalStack=0;resizeParent=1;resizeLast=0;collapsible=1;marginBottom=0;rounded=0;shadow=0;strokeWidth=1;" parent="WIyWlLk6GJQsqaUBKTNV-1" vertex="1">
          <mxGeometry x="2706" y="2170" width="331" height="170" as="geometry">
            <mxRectangle x="230" y="140" width="160" height="26" as="alternateBounds" />
          </mxGeometry>
        </mxCell>
        <mxCell id="u2uQaywFyPR_KE_2P75B-40" value="&lt;div&gt;&lt;span&gt; &lt;/span&gt;int&lt;span&gt; &lt;/span&gt;idx;&lt;/div&gt;&lt;div&gt;&lt;br&gt;&lt;/div&gt;&lt;div&gt;&lt;span&gt; &lt;/span&gt;idx = *e + 1;&lt;/div&gt;&lt;div&gt;&lt;span&gt; &lt;/span&gt;while (line[idx] &amp;amp;&amp;amp; line[idx] != end_c)&lt;/div&gt;&lt;div&gt;&lt;span&gt;  &lt;/span&gt;&lt;span style=&quot;white-space: pre&quot;&gt; &lt;/span&gt;idx++;&lt;/div&gt;&lt;div&gt;&lt;span&gt; &lt;/span&gt;if (!line[idx])&lt;/div&gt;&lt;div&gt;&lt;span&gt;  &lt;/span&gt;&lt;span style=&quot;white-space: pre&quot;&gt; &lt;/span&gt;return (error_occur_perror(NOT_CLOSED));&lt;/div&gt;&lt;div&gt;&lt;span&gt; &lt;/span&gt;*e = idx;&lt;/div&gt;&lt;div&gt;&lt;span&gt; &lt;/span&gt;return (1);&lt;/div&gt;" style="text;html=1;strokeColor=none;fillColor=none;align=left;verticalAlign=middle;whiteSpace=wrap;rounded=0;" parent="u2uQaywFyPR_KE_2P75B-39" vertex="1">
          <mxGeometry y="26" width="331" height="144" as="geometry" />
        </mxCell>
        <mxCell id="u2uQaywFyPR_KE_2P75B-41" value="int append_pipe_command(t_info *info, char *input, int *s, int *e)" style="swimlane;fontStyle=2;align=center;verticalAlign=top;childLayout=stackLayout;horizontal=1;startSize=26;horizontalStack=0;resizeParent=1;resizeLast=0;collapsible=1;marginBottom=0;rounded=0;shadow=0;strokeWidth=1;" parent="WIyWlLk6GJQsqaUBKTNV-1" vertex="1">
          <mxGeometry x="2706" y="2400" width="391" height="380" as="geometry">
            <mxRectangle x="230" y="140" width="160" height="26" as="alternateBounds" />
          </mxGeometry>
        </mxCell>
        <mxCell id="u2uQaywFyPR_KE_2P75B-42" value="&lt;div&gt;t_list&lt;span&gt; &lt;/span&gt;*data;&lt;/div&gt;&lt;div&gt;&lt;br&gt;&lt;/div&gt;&lt;div&gt;&lt;span&gt; &lt;/span&gt;if (input[*e + 1] == PIPE)&lt;/div&gt;&lt;div&gt;&lt;span&gt; &lt;/span&gt;{&lt;/div&gt;&lt;div&gt;&lt;span&gt;  &lt;/span&gt;&lt;span style=&quot;white-space: pre&quot;&gt; &lt;/span&gt;if (!append_command(info, input, *s, *e))&lt;/div&gt;&lt;div&gt;&lt;span&gt;   &lt;/span&gt;&lt;span style=&quot;white-space: pre&quot;&gt; &lt;/span&gt;&lt;span style=&quot;white-space: pre&quot;&gt; &lt;/span&gt;return (0);&lt;/div&gt;&lt;div&gt;&lt;span&gt;  &lt;/span&gt;&lt;span style=&quot;white-space: pre&quot;&gt; &lt;/span&gt;data = get_numpoint(DB_PIPE);&lt;/div&gt;&lt;div&gt;&lt;span&gt;  &lt;/span&gt;&lt;span style=&quot;white-space: pre&quot;&gt; &lt;/span&gt;if (!data)&lt;/div&gt;&lt;div&gt;&lt;span&gt;   &lt;/span&gt;&lt;span style=&quot;white-space: pre&quot;&gt; &lt;/span&gt;&lt;span style=&quot;white-space: pre&quot;&gt; &lt;/span&gt;return (0);&lt;/div&gt;&lt;div&gt;&lt;span&gt;  &lt;/span&gt;&lt;span style=&quot;white-space: pre&quot;&gt; &lt;/span&gt;ft_lstadd_back(&amp;amp;info-&amp;gt;commands_symbol, data);&lt;/div&gt;&lt;div&gt;&lt;span&gt;  &lt;/span&gt;&lt;span style=&quot;white-space: pre&quot;&gt; &lt;/span&gt;*s = *e + 2;&lt;/div&gt;&lt;div&gt;&lt;span&gt;  &lt;/span&gt;&lt;span style=&quot;white-space: pre&quot;&gt; &lt;/span&gt;*e = *e + 1;&lt;/div&gt;&lt;div&gt;&lt;span&gt; &lt;/span&gt;}&lt;/div&gt;&lt;div&gt;&lt;span&gt; &lt;/span&gt;else&lt;/div&gt;&lt;div&gt;&lt;span&gt; &lt;/span&gt;{&lt;/div&gt;&lt;div&gt;&lt;span&gt;  &lt;/span&gt;&lt;span style=&quot;white-space: pre&quot;&gt; &lt;/span&gt;if (!append_command(info, input, *s, *e))&lt;/div&gt;&lt;div&gt;&lt;span&gt;   &lt;/span&gt;&lt;span style=&quot;white-space: pre&quot;&gt; &lt;/span&gt;&lt;span style=&quot;white-space: pre&quot;&gt; &lt;/span&gt;return (0);&lt;/div&gt;&lt;div&gt;&lt;span&gt;  &lt;/span&gt;&lt;span style=&quot;white-space: pre&quot;&gt; &lt;/span&gt;data = get_numpoint(SG_PIPE);&lt;/div&gt;&lt;div&gt;&lt;span&gt;  &lt;/span&gt;&lt;span style=&quot;white-space: pre&quot;&gt; &lt;/span&gt;if (!data)&lt;/div&gt;&lt;div&gt;&lt;span&gt;   &lt;/span&gt;&lt;span style=&quot;white-space: pre&quot;&gt; &lt;/span&gt;&lt;span style=&quot;white-space: pre&quot;&gt; &lt;/span&gt;return (0);&lt;/div&gt;&lt;div&gt;&lt;span&gt;  &lt;/span&gt;&lt;span style=&quot;white-space: pre&quot;&gt; &lt;/span&gt;ft_lstadd_back(&amp;amp;info-&amp;gt;commands_symbol, data);&lt;/div&gt;&lt;div&gt;&lt;span&gt;  &lt;/span&gt;&lt;span style=&quot;white-space: pre&quot;&gt; &lt;/span&gt;*s = *e + 1;&lt;/div&gt;&lt;div&gt;&lt;span&gt; &lt;/span&gt;}&lt;/div&gt;&lt;div&gt;&lt;span&gt; &lt;/span&gt;return (1);&lt;/div&gt;" style="text;html=1;strokeColor=none;fillColor=none;align=left;verticalAlign=middle;whiteSpace=wrap;rounded=0;" parent="u2uQaywFyPR_KE_2P75B-41" vertex="1">
          <mxGeometry y="26" width="391" height="354" as="geometry" />
        </mxCell>
        <mxCell id="u2uQaywFyPR_KE_2P75B-43" value="int append_amper_command(t_info *info, char *input, int *s, int *e)" style="swimlane;fontStyle=2;align=center;verticalAlign=top;childLayout=stackLayout;horizontal=1;startSize=26;horizontalStack=0;resizeParent=1;resizeLast=0;collapsible=1;marginBottom=0;rounded=0;shadow=0;strokeWidth=1;" parent="WIyWlLk6GJQsqaUBKTNV-1" vertex="1">
          <mxGeometry x="2706" y="2837" width="391" height="333" as="geometry">
            <mxRectangle x="230" y="140" width="160" height="26" as="alternateBounds" />
          </mxGeometry>
        </mxCell>
        <mxCell id="u2uQaywFyPR_KE_2P75B-44" value="&lt;div&gt;t_list&lt;span&gt; &lt;/span&gt;*data;&lt;/div&gt;&lt;div&gt;&lt;br&gt;&lt;/div&gt;&lt;div&gt;&lt;span&gt; &lt;/span&gt;if (input[*e + 1] == &#39;&amp;amp;&#39;)&lt;/div&gt;&lt;div&gt;&lt;span&gt; &lt;/span&gt;{&lt;/div&gt;&lt;blockquote style=&quot;margin: 0 0 0 40px ; border: none ; padding: 0px&quot;&gt;&lt;div&gt;if (!append_command(info, input, *s, *e))&lt;/div&gt;&lt;div&gt;&lt;span style=&quot;white-space: pre&quot;&gt; &lt;/span&gt;return (0);&lt;/div&gt;&lt;div&gt;data = get_numpoint(DB_AMPER);&lt;/div&gt;&lt;div&gt;if (!data)&lt;/div&gt;&lt;div&gt;&lt;span style=&quot;white-space: pre&quot;&gt; &lt;/span&gt;return (0);&lt;/div&gt;&lt;div&gt;ft_lstadd_back(&amp;amp;info-&amp;gt;commands_symbol, data);&lt;/div&gt;&lt;div&gt;*s = *e + 2;&lt;/div&gt;&lt;div&gt;*e = *e + 1;&lt;/div&gt;&lt;/blockquote&gt;&lt;div&gt;&lt;span&gt; &lt;/span&gt;}&lt;/div&gt;&lt;div&gt;&lt;span&gt; &lt;/span&gt;else&lt;/div&gt;&lt;div&gt;&lt;span&gt; &lt;/span&gt;{&lt;/div&gt;&lt;blockquote style=&quot;margin: 0 0 0 40px ; border: none ; padding: 0px&quot;&gt;&lt;div&gt;if (*e == 0)&lt;/div&gt;&lt;div&gt;&lt;span style=&quot;white-space: pre&quot;&gt; &lt;/span&gt;return (0);&lt;/div&gt;&lt;div&gt;if (input[*e - 1] != &#39;&amp;gt;&#39; &amp;amp;&amp;amp; input[*e - 1] != &#39;&amp;lt;&#39;)&lt;/div&gt;&lt;div&gt;&lt;span style=&quot;white-space: pre&quot;&gt; &lt;/span&gt;return (0);&lt;/div&gt;&lt;/blockquote&gt;&lt;div&gt;&lt;span&gt; &lt;/span&gt;}&lt;/div&gt;&lt;div&gt;&lt;span&gt; &lt;/span&gt;return (1);&lt;/div&gt;" style="text;html=1;strokeColor=none;fillColor=none;align=left;verticalAlign=middle;whiteSpace=wrap;rounded=0;" parent="u2uQaywFyPR_KE_2P75B-43" vertex="1">
          <mxGeometry y="26" width="391" height="304" as="geometry" />
        </mxCell>
        <mxCell id="u2uQaywFyPR_KE_2P75B-45" value="int append_command(t_info *info, char *input, int s, int e)" style="swimlane;fontStyle=2;align=center;verticalAlign=top;childLayout=stackLayout;horizontal=1;startSize=26;horizontalStack=0;resizeParent=1;resizeLast=0;collapsible=1;marginBottom=0;rounded=0;shadow=0;strokeWidth=1;" parent="WIyWlLk6GJQsqaUBKTNV-1" vertex="1">
          <mxGeometry x="2706.5" y="3230" width="380.5" height="320" as="geometry">
            <mxRectangle x="230" y="140" width="160" height="26" as="alternateBounds" />
          </mxGeometry>
        </mxCell>
        <mxCell id="u2uQaywFyPR_KE_2P75B-46" value="&lt;div&gt;char&lt;span&gt; &lt;/span&gt;*temp;&lt;/div&gt;&lt;div&gt;&lt;span&gt; &lt;/span&gt;t_list&lt;span&gt; &lt;/span&gt;*data;&lt;/div&gt;&lt;div&gt;&lt;br&gt;&lt;/div&gt;&lt;div&gt;&lt;span&gt; &lt;/span&gt;temp = ft_substr(input + s, 0, e - s);&lt;/div&gt;&lt;div&gt;&lt;span&gt; &lt;/span&gt;if (!temp)&lt;/div&gt;&lt;div&gt;&lt;span&gt;  &lt;/span&gt;&lt;span style=&quot;white-space: pre&quot;&gt; &lt;/span&gt;return (error_occur_perror(MALLOC_ERR));&lt;/div&gt;&lt;div&gt;&lt;span&gt; &lt;/span&gt;if (is_empty(temp))&lt;/div&gt;&lt;div&gt;&lt;span&gt; &lt;/span&gt;{&lt;/div&gt;&lt;div&gt;&lt;span&gt;  &lt;/span&gt;&lt;span style=&quot;white-space: pre&quot;&gt; &lt;/span&gt;free(temp);&lt;/div&gt;&lt;div&gt;&lt;span&gt;  &lt;/span&gt;&lt;span style=&quot;white-space: pre&quot;&gt; &lt;/span&gt;return (0);&lt;/div&gt;&lt;div&gt;&lt;span&gt; &lt;/span&gt;}&lt;/div&gt;&lt;div&gt;&lt;span&gt; &lt;/span&gt;data = ft_lstnew(temp);&lt;/div&gt;&lt;div&gt;&lt;span&gt; &lt;/span&gt;if (!data)&lt;/div&gt;&lt;div&gt;&lt;span&gt; &lt;/span&gt;{&lt;/div&gt;&lt;div&gt;&lt;span&gt;  &lt;/span&gt;&lt;span style=&quot;white-space: pre&quot;&gt; &lt;/span&gt;free(temp);&lt;/div&gt;&lt;div&gt;&lt;span&gt;  &lt;/span&gt;&lt;span style=&quot;white-space: pre&quot;&gt; &lt;/span&gt;return (error_occur_perror(MALLOC_ERR));&lt;/div&gt;&lt;div&gt;&lt;span&gt; &lt;/span&gt;}&lt;/div&gt;&lt;div&gt;&lt;span&gt; &lt;/span&gt;ft_lstadd_back(&amp;amp;info-&amp;gt;commands, data);&lt;/div&gt;&lt;div&gt;&lt;span&gt; &lt;/span&gt;info-&amp;gt;command_cnt++;&lt;/div&gt;&lt;div&gt;&lt;span&gt; &lt;/span&gt;return (1);&lt;/div&gt;" style="text;html=1;strokeColor=none;fillColor=none;align=left;verticalAlign=middle;whiteSpace=wrap;rounded=0;" parent="u2uQaywFyPR_KE_2P75B-45" vertex="1">
          <mxGeometry y="26" width="380.5" height="294" as="geometry" />
        </mxCell>
        <mxCell id="u2uQaywFyPR_KE_2P75B-47" value="t_list *get_numpoint(int num)" style="swimlane;fontStyle=2;align=center;verticalAlign=top;childLayout=stackLayout;horizontal=1;startSize=26;horizontalStack=0;resizeParent=1;resizeLast=0;collapsible=1;marginBottom=0;rounded=0;shadow=0;strokeWidth=1;" parent="WIyWlLk6GJQsqaUBKTNV-1" vertex="1">
          <mxGeometry x="3525" y="2500" width="210" height="230" as="geometry">
            <mxRectangle x="230" y="140" width="160" height="26" as="alternateBounds" />
          </mxGeometry>
        </mxCell>
        <mxCell id="u2uQaywFyPR_KE_2P75B-48" value="&lt;div&gt;t_list&lt;span&gt; &lt;/span&gt;*data;&lt;/div&gt;&lt;div&gt;&lt;span&gt; &lt;/span&gt;int&lt;span&gt;  &lt;/span&gt;*ptr;&lt;/div&gt;&lt;div&gt;&lt;br&gt;&lt;/div&gt;&lt;div&gt;&lt;span&gt; &lt;/span&gt;ptr = (int *)malloc(sizeof(int));&lt;/div&gt;&lt;div&gt;&lt;span&gt; &lt;/span&gt;if (!ptr)&lt;/div&gt;&lt;div&gt;&lt;span&gt;  &lt;/span&gt;&lt;span style=&quot;white-space: pre&quot;&gt; &lt;/span&gt;return (0);&lt;/div&gt;&lt;div&gt;&lt;span&gt; &lt;/span&gt;*ptr = num;&lt;/div&gt;&lt;div&gt;&lt;span&gt; &lt;/span&gt;data = ft_lstnew((void *)ptr);&lt;/div&gt;&lt;div&gt;&lt;span&gt; &lt;/span&gt;if (!data)&lt;/div&gt;&lt;div&gt;&lt;span&gt; &lt;/span&gt;{&lt;/div&gt;&lt;div&gt;&lt;span&gt;  &lt;/span&gt;&lt;span style=&quot;white-space: pre&quot;&gt; &lt;/span&gt;free(ptr);&lt;/div&gt;&lt;div&gt;&lt;span&gt;  &lt;/span&gt;&lt;span style=&quot;white-space: pre&quot;&gt; &lt;/span&gt;return (0);&lt;/div&gt;&lt;div&gt;&lt;span&gt; &lt;/span&gt;}&lt;/div&gt;&lt;div&gt;&lt;span&gt; &lt;/span&gt;return (data);&lt;/div&gt;" style="text;html=1;strokeColor=none;fillColor=none;align=left;verticalAlign=middle;whiteSpace=wrap;rounded=0;" parent="u2uQaywFyPR_KE_2P75B-47" vertex="1">
          <mxGeometry y="26" width="210" height="204" as="geometry" />
        </mxCell>
        <mxCell id="u2uQaywFyPR_KE_2P75B-49" value="int is_empty(char *temp)" style="swimlane;fontStyle=2;align=center;verticalAlign=top;childLayout=stackLayout;horizontal=1;startSize=26;horizontalStack=0;resizeParent=1;resizeLast=0;collapsible=1;marginBottom=0;rounded=0;shadow=0;strokeWidth=1;" parent="WIyWlLk6GJQsqaUBKTNV-1" vertex="1">
          <mxGeometry x="3525" y="3260" width="180" height="180" as="geometry">
            <mxRectangle x="230" y="140" width="160" height="26" as="alternateBounds" />
          </mxGeometry>
        </mxCell>
        <mxCell id="u2uQaywFyPR_KE_2P75B-50" value="&lt;div&gt;int&lt;span&gt; &lt;/span&gt;i;&lt;/div&gt;&lt;div&gt;&lt;br&gt;&lt;/div&gt;&lt;div&gt;&lt;span&gt; &lt;/span&gt;i = 0;&lt;/div&gt;&lt;div&gt;&lt;span&gt; &lt;/span&gt;while (temp[i])&lt;/div&gt;&lt;div&gt;&lt;span&gt; &lt;/span&gt;{&lt;/div&gt;&lt;div&gt;&lt;span&gt;  &lt;/span&gt;&lt;span style=&quot;white-space: pre&quot;&gt; &lt;/span&gt;if (temp[i] != &#39; &#39;)&lt;/div&gt;&lt;div&gt;&lt;span&gt;   &lt;/span&gt;&lt;span style=&quot;white-space: pre&quot;&gt; &lt;span style=&quot;white-space: pre&quot;&gt; &lt;/span&gt;&lt;/span&gt;return (0);&lt;/div&gt;&lt;div&gt;&lt;span&gt;  &lt;/span&gt;&lt;span style=&quot;white-space: pre&quot;&gt; &lt;/span&gt;i++;&lt;/div&gt;&lt;div&gt;&lt;span&gt; &lt;/span&gt;}&lt;/div&gt;&lt;div&gt;&lt;span&gt; &lt;/span&gt;return (1);&lt;/div&gt;" style="text;html=1;strokeColor=none;fillColor=none;align=left;verticalAlign=middle;whiteSpace=wrap;rounded=0;" parent="u2uQaywFyPR_KE_2P75B-49" vertex="1">
          <mxGeometry y="26" width="180" height="154" as="geometry" />
        </mxCell>
        <mxCell id="u2uQaywFyPR_KE_2P75B-51" style="edgeStyle=orthogonalEdgeStyle;rounded=0;orthogonalLoop=1;jettySize=auto;html=1;exitX=1;exitY=0.5;exitDx=0;exitDy=0;" parent="WIyWlLk6GJQsqaUBKTNV-1" source="u2uQaywFyPR_KE_2P75B-5" target="u2uQaywFyPR_KE_2P75B-7" edge="1">
          <mxGeometry relative="1" as="geometry">
            <Array as="points">
              <mxPoint x="1690" y="210" />
              <mxPoint x="1690" y="236" />
            </Array>
          </mxGeometry>
        </mxCell>
        <mxCell id="u2uQaywFyPR_KE_2P75B-52" style="edgeStyle=orthogonalEdgeStyle;rounded=0;orthogonalLoop=1;jettySize=auto;html=1;entryX=0;entryY=0.5;entryDx=0;entryDy=0;" parent="WIyWlLk6GJQsqaUBKTNV-1" target="u2uQaywFyPR_KE_2P75B-30" edge="1">
          <mxGeometry relative="1" as="geometry">
            <mxPoint x="1396" y="280" as="sourcePoint" />
            <Array as="points">
              <mxPoint x="1396" y="280" />
              <mxPoint x="1658" y="280" />
              <mxPoint x="1658" y="1393" />
            </Array>
          </mxGeometry>
        </mxCell>
        <mxCell id="u2uQaywFyPR_KE_2P75B-53" style="edgeStyle=orthogonalEdgeStyle;rounded=0;orthogonalLoop=1;jettySize=auto;html=1;entryX=0;entryY=0.5;entryDx=0;entryDy=0;" parent="WIyWlLk6GJQsqaUBKTNV-1" target="u2uQaywFyPR_KE_2P75B-34" edge="1">
          <mxGeometry relative="1" as="geometry">
            <mxPoint x="1396" y="320" as="sourcePoint" />
            <Array as="points">
              <mxPoint x="1580" y="320" />
              <mxPoint x="1580" y="1923" />
            </Array>
          </mxGeometry>
        </mxCell>
        <mxCell id="u2uQaywFyPR_KE_2P75B-54" style="edgeStyle=orthogonalEdgeStyle;rounded=0;orthogonalLoop=1;jettySize=auto;html=1;" parent="WIyWlLk6GJQsqaUBKTNV-1" target="u2uQaywFyPR_KE_2P75B-9" edge="1">
          <mxGeometry relative="1" as="geometry">
            <mxPoint x="2280" y="180" as="sourcePoint" />
            <Array as="points">
              <mxPoint x="2280" y="180" />
            </Array>
          </mxGeometry>
        </mxCell>
        <mxCell id="u2uQaywFyPR_KE_2P75B-55" style="edgeStyle=orthogonalEdgeStyle;rounded=0;orthogonalLoop=1;jettySize=auto;html=1;entryX=0;entryY=0.5;entryDx=0;entryDy=0;" parent="WIyWlLk6GJQsqaUBKTNV-1" target="u2uQaywFyPR_KE_2P75B-11" edge="1">
          <mxGeometry relative="1" as="geometry">
            <mxPoint x="2278" y="200" as="sourcePoint" />
            <Array as="points">
              <mxPoint x="2510" y="200" />
              <mxPoint x="2510" y="589" />
            </Array>
          </mxGeometry>
        </mxCell>
        <mxCell id="u2uQaywFyPR_KE_2P75B-56" style="edgeStyle=orthogonalEdgeStyle;rounded=0;orthogonalLoop=1;jettySize=auto;html=1;exitX=1;exitY=0.5;exitDx=0;exitDy=0;entryX=0;entryY=0.5;entryDx=0;entryDy=0;" parent="WIyWlLk6GJQsqaUBKTNV-1" source="u2uQaywFyPR_KE_2P75B-7" target="u2uQaywFyPR_KE_2P75B-13" edge="1">
          <mxGeometry relative="1" as="geometry">
            <Array as="points">
              <mxPoint x="2450" y="220" />
              <mxPoint x="2450" y="853" />
            </Array>
          </mxGeometry>
        </mxCell>
        <mxCell id="u2uQaywFyPR_KE_2P75B-57" style="edgeStyle=orthogonalEdgeStyle;rounded=0;orthogonalLoop=1;jettySize=auto;html=1;entryX=0;entryY=0.5;entryDx=0;entryDy=0;" parent="WIyWlLk6GJQsqaUBKTNV-1" target="u2uQaywFyPR_KE_2P75B-27" edge="1">
          <mxGeometry relative="1" as="geometry">
            <mxPoint x="2278" y="290" as="sourcePoint" />
            <Array as="points">
              <mxPoint x="2278" y="290" />
              <mxPoint x="2390" y="290" />
              <mxPoint x="2390" y="1018" />
            </Array>
          </mxGeometry>
        </mxCell>
        <mxCell id="u2uQaywFyPR_KE_2P75B-58" style="edgeStyle=orthogonalEdgeStyle;rounded=0;orthogonalLoop=1;jettySize=auto;html=1;exitX=1;exitY=0.25;exitDx=0;exitDy=0;entryX=0;entryY=0.5;entryDx=0;entryDy=0;" parent="WIyWlLk6GJQsqaUBKTNV-1" source="u2uQaywFyPR_KE_2P75B-13" target="u2uQaywFyPR_KE_2P75B-15" edge="1">
          <mxGeometry relative="1" as="geometry">
            <Array as="points">
              <mxPoint x="3270" y="830" />
              <mxPoint x="3270" y="863" />
            </Array>
          </mxGeometry>
        </mxCell>
        <mxCell id="u2uQaywFyPR_KE_2P75B-59" style="edgeStyle=orthogonalEdgeStyle;rounded=0;orthogonalLoop=1;jettySize=auto;html=1;exitX=1;exitY=0.5;exitDx=0;exitDy=0;entryX=0;entryY=0.5;entryDx=0;entryDy=0;" parent="WIyWlLk6GJQsqaUBKTNV-1" source="u2uQaywFyPR_KE_2P75B-13" target="u2uQaywFyPR_KE_2P75B-19" edge="1">
          <mxGeometry relative="1" as="geometry">
            <Array as="points">
              <mxPoint x="3200" y="840" />
              <mxPoint x="3200" y="1178" />
            </Array>
          </mxGeometry>
        </mxCell>
        <mxCell id="u2uQaywFyPR_KE_2P75B-60" style="edgeStyle=orthogonalEdgeStyle;rounded=0;orthogonalLoop=1;jettySize=auto;html=1;entryX=0;entryY=0.5;entryDx=0;entryDy=0;" parent="WIyWlLk6GJQsqaUBKTNV-1" target="u2uQaywFyPR_KE_2P75B-32" edge="1">
          <mxGeometry relative="1" as="geometry">
            <mxPoint x="2170" y="1350" as="sourcePoint" />
            <Array as="points">
              <mxPoint x="2170" y="1350" />
              <mxPoint x="2458" y="1350" />
              <mxPoint x="2458" y="1388" />
            </Array>
          </mxGeometry>
        </mxCell>
        <mxCell id="u2uQaywFyPR_KE_2P75B-61" style="edgeStyle=orthogonalEdgeStyle;rounded=0;orthogonalLoop=1;jettySize=auto;html=1;exitX=1;exitY=0.75;exitDx=0;exitDy=0;entryX=0;entryY=0.5;entryDx=0;entryDy=0;" parent="WIyWlLk6GJQsqaUBKTNV-1" source="u2uQaywFyPR_KE_2P75B-13" target="u2uQaywFyPR_KE_2P75B-21" edge="1">
          <mxGeometry relative="1" as="geometry">
            <Array as="points">
              <mxPoint x="3160" y="872" />
              <mxPoint x="3160" y="1573" />
            </Array>
          </mxGeometry>
        </mxCell>
        <mxCell id="u2uQaywFyPR_KE_2P75B-62" style="edgeStyle=orthogonalEdgeStyle;rounded=0;orthogonalLoop=1;jettySize=auto;html=1;exitX=1;exitY=0.25;exitDx=0;exitDy=0;" parent="WIyWlLk6GJQsqaUBKTNV-1" source="u2uQaywFyPR_KE_2P75B-34" target="u2uQaywFyPR_KE_2P75B-36" edge="1">
          <mxGeometry relative="1" as="geometry">
            <Array as="points">
              <mxPoint x="2540" y="1830" />
              <mxPoint x="2540" y="1903" />
            </Array>
          </mxGeometry>
        </mxCell>
        <mxCell id="u2uQaywFyPR_KE_2P75B-63" style="edgeStyle=orthogonalEdgeStyle;rounded=0;orthogonalLoop=1;jettySize=auto;html=1;" parent="WIyWlLk6GJQsqaUBKTNV-1" target="u2uQaywFyPR_KE_2P75B-38" edge="1">
          <mxGeometry relative="1" as="geometry">
            <mxPoint x="2290" y="1870" as="sourcePoint" />
            <Array as="points">
              <mxPoint x="2290" y="1870" />
              <mxPoint x="2497" y="1870" />
              <mxPoint x="2497" y="2083" />
            </Array>
          </mxGeometry>
        </mxCell>
        <mxCell id="u2uQaywFyPR_KE_2P75B-64" style="edgeStyle=orthogonalEdgeStyle;rounded=0;orthogonalLoop=1;jettySize=auto;html=1;exitX=1;exitY=0.5;exitDx=0;exitDy=0;entryX=0;entryY=0.75;entryDx=0;entryDy=0;" parent="WIyWlLk6GJQsqaUBKTNV-1" source="u2uQaywFyPR_KE_2P75B-34" target="u2uQaywFyPR_KE_2P75B-42" edge="1">
          <mxGeometry relative="1" as="geometry">
            <Array as="points">
              <mxPoint x="2470" y="1923" />
              <mxPoint x="2470" y="2603" />
            </Array>
          </mxGeometry>
        </mxCell>
        <mxCell id="u2uQaywFyPR_KE_2P75B-65" style="edgeStyle=orthogonalEdgeStyle;rounded=0;orthogonalLoop=1;jettySize=auto;html=1;exitX=1;exitY=0.5;exitDx=0;exitDy=0;entryX=0;entryY=0.5;entryDx=0;entryDy=0;" parent="WIyWlLk6GJQsqaUBKTNV-1" source="u2uQaywFyPR_KE_2P75B-34" target="u2uQaywFyPR_KE_2P75B-40" edge="1">
          <mxGeometry relative="1" as="geometry">
            <Array as="points">
              <mxPoint x="2497" y="1870" />
              <mxPoint x="2497" y="2268" />
            </Array>
          </mxGeometry>
        </mxCell>
        <mxCell id="u2uQaywFyPR_KE_2P75B-66" style="edgeStyle=orthogonalEdgeStyle;rounded=0;orthogonalLoop=1;jettySize=auto;html=1;entryX=0;entryY=0.5;entryDx=0;entryDy=0;" parent="WIyWlLk6GJQsqaUBKTNV-1" target="u2uQaywFyPR_KE_2P75B-44" edge="1">
          <mxGeometry relative="1" as="geometry">
            <mxPoint x="2287" y="2000" as="sourcePoint" />
            <Array as="points">
              <mxPoint x="2287" y="2000" />
              <mxPoint x="2440" y="2000" />
              <mxPoint x="2440" y="3015" />
            </Array>
          </mxGeometry>
        </mxCell>
        <mxCell id="u2uQaywFyPR_KE_2P75B-67" style="edgeStyle=orthogonalEdgeStyle;rounded=0;orthogonalLoop=1;jettySize=auto;html=1;exitX=1;exitY=0.75;exitDx=0;exitDy=0;entryX=0;entryY=0.5;entryDx=0;entryDy=0;" parent="WIyWlLk6GJQsqaUBKTNV-1" source="u2uQaywFyPR_KE_2P75B-34" target="u2uQaywFyPR_KE_2P75B-46" edge="1">
          <mxGeometry relative="1" as="geometry">
            <Array as="points">
              <mxPoint x="2400" y="2070" />
              <mxPoint x="2400" y="3403" />
            </Array>
          </mxGeometry>
        </mxCell>
        <mxCell id="u2uQaywFyPR_KE_2P75B-68" style="edgeStyle=orthogonalEdgeStyle;rounded=0;orthogonalLoop=1;jettySize=auto;html=1;exitX=1;exitY=0.5;exitDx=0;exitDy=0;" parent="WIyWlLk6GJQsqaUBKTNV-1" source="u2uQaywFyPR_KE_2P75B-42" target="u2uQaywFyPR_KE_2P75B-48" edge="1">
          <mxGeometry relative="1" as="geometry" />
        </mxCell>
        <mxCell id="u2uQaywFyPR_KE_2P75B-70" style="edgeStyle=orthogonalEdgeStyle;rounded=0;orthogonalLoop=1;jettySize=auto;html=1;exitX=1;exitY=0.5;exitDx=0;exitDy=0;entryX=0;entryY=0.5;entryDx=0;entryDy=0;" parent="WIyWlLk6GJQsqaUBKTNV-1" source="u2uQaywFyPR_KE_2P75B-44" target="u2uQaywFyPR_KE_2P75B-48" edge="1">
          <mxGeometry relative="1" as="geometry" />
        </mxCell>
        <mxCell id="u2uQaywFyPR_KE_2P75B-71" style="edgeStyle=orthogonalEdgeStyle;rounded=0;orthogonalLoop=1;jettySize=auto;html=1;exitX=1;exitY=0.5;exitDx=0;exitDy=0;" parent="WIyWlLk6GJQsqaUBKTNV-1" source="u2uQaywFyPR_KE_2P75B-46" target="u2uQaywFyPR_KE_2P75B-50" edge="1">
          <mxGeometry relative="1" as="geometry" />
        </mxCell>
        <mxCell id="u2uQaywFyPR_KE_2P75B-72" style="edgeStyle=orthogonalEdgeStyle;rounded=0;orthogonalLoop=1;jettySize=auto;html=1;" parent="WIyWlLk6GJQsqaUBKTNV-1" target="u2uQaywFyPR_KE_2P75B-45" edge="1">
          <mxGeometry relative="1" as="geometry">
            <mxPoint x="3097" y="2490" as="sourcePoint" />
            <Array as="points">
              <mxPoint x="3097" y="2490" />
              <mxPoint x="3117" y="2490" />
              <mxPoint x="3117" y="3200" />
              <mxPoint x="2897" y="3200" />
            </Array>
          </mxGeometry>
        </mxCell>
        <mxCell id="u2uQaywFyPR_KE_2P75B-73" style="edgeStyle=orthogonalEdgeStyle;rounded=0;orthogonalLoop=1;jettySize=auto;html=1;" parent="WIyWlLk6GJQsqaUBKTNV-1" target="u2uQaywFyPR_KE_2P75B-45" edge="1">
          <mxGeometry relative="1" as="geometry">
            <mxPoint x="3097" y="2930" as="sourcePoint" />
            <Array as="points">
              <mxPoint x="3097" y="2930" />
              <mxPoint x="3117" y="2930" />
              <mxPoint x="3117" y="3199" />
              <mxPoint x="2897" y="3199" />
            </Array>
          </mxGeometry>
        </mxCell>
        <mxCell id="hcFAv_5k8Y_99JVzGGXi-0" value="void	start(t_info *info)" style="swimlane;fontStyle=2;align=center;verticalAlign=top;childLayout=stackLayout;horizontal=1;startSize=26;horizontalStack=0;resizeParent=1;resizeLast=0;collapsible=1;marginBottom=0;rounded=0;shadow=0;strokeWidth=1;" vertex="1" parent="WIyWlLk6GJQsqaUBKTNV-1">
          <mxGeometry x="1890" y="3810" width="410" height="380" as="geometry">
            <mxRectangle x="230" y="140" width="160" height="26" as="alternateBounds" />
          </mxGeometry>
        </mxCell>
        <mxCell id="hcFAv_5k8Y_99JVzGGXi-1" value="&lt;div&gt;t_list&lt;span&gt;	&lt;/span&gt;*commands;&lt;/div&gt;&lt;div&gt;&lt;span&gt;	&lt;/span&gt;t_list&lt;span&gt;	&lt;/span&gt;*symbols;&lt;/div&gt;&lt;div&gt;&lt;span&gt;	&lt;/span&gt;int&lt;span&gt;		&lt;/span&gt;seq;&lt;/div&gt;&lt;div&gt;&lt;br&gt;&lt;/div&gt;&lt;div&gt;&lt;span&gt;	&lt;/span&gt;commands = info-&amp;gt;commands;&lt;/div&gt;&lt;div&gt;&lt;span&gt;	&lt;/span&gt;symbols = info-&amp;gt;commands_symbol;&lt;/div&gt;&lt;div&gt;&lt;span&gt;	&lt;/span&gt;seq = 0;&lt;/div&gt;&lt;div&gt;&lt;span&gt;	&lt;/span&gt;while (commands &amp;amp;&amp;amp; info-&amp;gt;command_cnt &amp;gt;= 0)&lt;/div&gt;&lt;div&gt;&lt;span&gt;	&lt;/span&gt;{&lt;/div&gt;&lt;blockquote style=&quot;margin: 0 0 0 40px ; border: none ; padding: 0px&quot;&gt;&lt;div&gt;info-&amp;gt;command_cnt--;&lt;/div&gt;&lt;div&gt;if (!redirect_filter(info, (char **)(&amp;amp;commands-&amp;gt;content)))&lt;/div&gt;&lt;div&gt;&lt;span style=&quot;white-space: pre&quot;&gt;	&lt;/span&gt;return (error_occur_perror_void(&quot;Redirect_filter error&quot;));&lt;/div&gt;&lt;div&gt;if (!command_filter(info, (char **)(&amp;amp;commands-&amp;gt;content)))&lt;/div&gt;&lt;div&gt;&lt;span style=&quot;white-space: pre&quot;&gt;	&lt;/span&gt;return (error_occur_perror_void(&quot;Command_filter error&quot;));&lt;/div&gt;&lt;div&gt;if (!init_command_info(info))&lt;/div&gt;&lt;div&gt;&lt;span style=&quot;white-space: pre&quot;&gt;	&lt;/span&gt;return (error_occur_perror_void(&quot;init_command_info error&quot;));&lt;/div&gt;&lt;div&gt;if (info-&amp;gt;command_cnt != 0 &amp;amp;&amp;amp; !set_connect_pipe(info, seq))&lt;/div&gt;&lt;div&gt;&lt;span style=&quot;white-space: pre&quot;&gt;	&lt;/span&gt;return (error_occur_perror_void(&quot;set_connect_pipe error&quot;));&lt;/div&gt;&lt;div&gt;if (symbols &amp;amp;&amp;amp; is_double_symbol(*(int *)symbols-&amp;gt;content))&lt;/div&gt;&lt;div&gt;&lt;span style=&quot;white-space: pre&quot;&gt;	&lt;/span&gt;exec_call(info, -1);&lt;/div&gt;&lt;div&gt;else&lt;/div&gt;&lt;div&gt;&lt;span style=&quot;white-space: pre&quot;&gt;	&lt;/span&gt;exec_call(info, seq++);&lt;/div&gt;&lt;div&gt;move_next_cmd(info, &amp;amp;commands, &amp;amp;symbols);&lt;/div&gt;&lt;/blockquote&gt;&lt;div&gt;&lt;span&gt;	&lt;/span&gt;}&lt;/div&gt;" style="text;html=1;strokeColor=none;fillColor=none;align=left;verticalAlign=middle;whiteSpace=wrap;rounded=0;" vertex="1" parent="hcFAv_5k8Y_99JVzGGXi-0">
          <mxGeometry y="26" width="410" height="354" as="geometry" />
        </mxCell>
        <mxCell id="hcFAv_5k8Y_99JVzGGXi-2" value="int	redirect_filter(t_info *info, char **content)" style="swimlane;fontStyle=2;align=center;verticalAlign=top;childLayout=stackLayout;horizontal=1;startSize=26;horizontalStack=0;resizeParent=1;resizeLast=0;collapsible=1;marginBottom=0;rounded=0;shadow=0;strokeWidth=1;" vertex="1" parent="WIyWlLk6GJQsqaUBKTNV-1">
          <mxGeometry x="2695" y="3840" width="440" height="280" as="geometry">
            <mxRectangle x="230" y="140" width="160" height="26" as="alternateBounds" />
          </mxGeometry>
        </mxCell>
        <mxCell id="hcFAv_5k8Y_99JVzGGXi-3" value="&lt;div&gt;&lt;span&gt;	&lt;/span&gt;int&lt;span&gt;	&lt;/span&gt;i;&lt;/div&gt;&lt;div&gt;&lt;br&gt;&lt;/div&gt;&lt;div&gt;&lt;span&gt;	&lt;/span&gt;i = 0;&lt;/div&gt;&lt;div&gt;&lt;span&gt;	&lt;/span&gt;while ((*content)[i])&lt;/div&gt;&lt;div&gt;&lt;span&gt;{&lt;/span&gt;&lt;/div&gt;&lt;blockquote style=&quot;margin: 0 0 0 40px ; border: none ; padding: 0px&quot;&gt;&lt;div&gt;if ((*content)[i] == SINGLE_Q || (*content)[i] == DOUBLE_Q)&lt;/div&gt;&lt;div&gt;&lt;span style=&quot;white-space: pre&quot;&gt;	&lt;/span&gt;move_quot_point(*content, &amp;amp;i, (*content)[i]);&lt;/div&gt;&lt;div&gt;else if ((*content)[i] == REDIRECT_IN || (*content)[i] == REDIRECT_OUT)&lt;/div&gt;&lt;div&gt;{&lt;/div&gt;&lt;div&gt;&lt;span style=&quot;white-space: pre&quot;&gt;	&lt;/span&gt;if (!redirect_add(info, content, &amp;amp;i))&lt;/div&gt;&lt;div&gt;&lt;span style=&quot;white-space: pre&quot;&gt;	&lt;/span&gt;&lt;span style=&quot;white-space: pre&quot;&gt;	&lt;/span&gt;return (0);&lt;/div&gt;&lt;div&gt;}&lt;/div&gt;&lt;div&gt;else&lt;/div&gt;&lt;div&gt;i++;&lt;/div&gt;&lt;/blockquote&gt;&lt;div&gt;&lt;span&gt;	&lt;/span&gt;}&lt;/div&gt;&lt;div&gt;&lt;span&gt;	&lt;/span&gt;return (1);&lt;/div&gt;" style="text;html=1;strokeColor=none;fillColor=none;align=left;verticalAlign=middle;whiteSpace=wrap;rounded=0;" vertex="1" parent="hcFAv_5k8Y_99JVzGGXi-2">
          <mxGeometry y="26" width="440" height="254" as="geometry" />
        </mxCell>
        <mxCell id="hcFAv_5k8Y_99JVzGGXi-4" value="void	move_quot_point(char *line, int *e, char end_c)" style="swimlane;fontStyle=2;align=center;verticalAlign=top;childLayout=stackLayout;horizontal=1;startSize=26;horizontalStack=0;resizeParent=1;resizeLast=0;collapsible=1;marginBottom=0;rounded=0;shadow=0;strokeWidth=1;" vertex="1" parent="WIyWlLk6GJQsqaUBKTNV-1">
          <mxGeometry x="3520" y="3840" width="340" height="130" as="geometry">
            <mxRectangle x="230" y="140" width="160" height="26" as="alternateBounds" />
          </mxGeometry>
        </mxCell>
        <mxCell id="hcFAv_5k8Y_99JVzGGXi-5" value="&lt;div&gt;&lt;span&gt;	&lt;/span&gt;int&lt;span&gt;	&lt;/span&gt;idx;&lt;/div&gt;&lt;div&gt;&lt;br&gt;&lt;/div&gt;&lt;div&gt;&lt;span&gt;	&lt;/span&gt;idx = *e + 1;&lt;/div&gt;&lt;div&gt;&lt;span&gt;	&lt;/span&gt;while (line[idx] != end_c)&lt;/div&gt;&lt;div&gt;&lt;span&gt;		&lt;/span&gt;&lt;span style=&quot;white-space: pre&quot;&gt;	&lt;/span&gt;idx++;&lt;/div&gt;&lt;div&gt;&lt;span&gt;	&lt;/span&gt;*e = idx + 1;&lt;/div&gt;" style="text;html=1;strokeColor=none;fillColor=none;align=left;verticalAlign=middle;whiteSpace=wrap;rounded=0;" vertex="1" parent="hcFAv_5k8Y_99JVzGGXi-4">
          <mxGeometry y="26" width="340" height="104" as="geometry" />
        </mxCell>
        <mxCell id="hcFAv_5k8Y_99JVzGGXi-6" value="int	redirect_add(t_info *info, char **content, int *i)" style="swimlane;fontStyle=2;align=center;verticalAlign=top;childLayout=stackLayout;horizontal=1;startSize=26;horizontalStack=0;resizeParent=1;resizeLast=0;collapsible=1;marginBottom=0;rounded=0;shadow=0;strokeWidth=1;" vertex="1" parent="WIyWlLk6GJQsqaUBKTNV-1">
          <mxGeometry x="3470" y="4060" width="410" height="330" as="geometry">
            <mxRectangle x="230" y="140" width="160" height="26" as="alternateBounds" />
          </mxGeometry>
        </mxCell>
        <mxCell id="hcFAv_5k8Y_99JVzGGXi-7" value="&lt;div&gt;int&lt;span&gt;	&lt;/span&gt;s;&lt;/div&gt;&lt;div&gt;&lt;span&gt;	&lt;/span&gt;int&lt;span&gt;	&lt;/span&gt;e;&lt;/div&gt;&lt;div&gt;&lt;br&gt;&lt;/div&gt;&lt;div&gt;&lt;span&gt;	&lt;/span&gt;s = 1;&lt;/div&gt;&lt;div&gt;&lt;span&gt;	&lt;/span&gt;e = *i;&lt;/div&gt;&lt;div&gt;&lt;span&gt;	&lt;/span&gt;while (*i &amp;gt;= s)&lt;/div&gt;&lt;div&gt;&lt;span&gt;	&lt;/span&gt;{&lt;/div&gt;&lt;div&gt;&lt;span&gt;		&lt;/span&gt;&lt;span style=&quot;white-space: pre&quot;&gt;	&lt;/span&gt;if ((*content)[e - s] &amp;gt;= &#39;0&#39; &amp;amp;&amp;amp; (*content)[e - s] &amp;lt;= &#39;9&#39;)&lt;/div&gt;&lt;div&gt;&lt;span&gt;			&lt;/span&gt;&lt;span style=&quot;white-space: pre&quot;&gt;	&lt;span style=&quot;white-space: pre&quot;&gt;	&lt;/span&gt;&lt;/span&gt;s++;&lt;/div&gt;&lt;div&gt;&lt;span&gt;		&lt;/span&gt;&lt;span style=&quot;white-space: pre&quot;&gt;	&lt;/span&gt;else&lt;/div&gt;&lt;div&gt;&lt;span&gt;			&lt;/span&gt;&lt;span style=&quot;white-space: pre&quot;&gt;	&lt;/span&gt;&lt;span style=&quot;white-space: pre&quot;&gt;	&lt;/span&gt;break ;&lt;/div&gt;&lt;div&gt;&lt;span&gt;	&lt;/span&gt;}&lt;/div&gt;&lt;div&gt;&lt;span&gt;	&lt;/span&gt;if (e &amp;gt;= s &amp;amp;&amp;amp; (*content)[e - s] != &#39; &#39;)&lt;/div&gt;&lt;div&gt;&lt;span&gt;		&lt;/span&gt;&lt;span style=&quot;white-space: pre&quot;&gt;	&lt;/span&gt;s = 1;&lt;/div&gt;&lt;div&gt;&lt;span&gt;	&lt;/span&gt;s = e - s + 1;&lt;/div&gt;&lt;div&gt;&lt;span&gt;	&lt;/span&gt;if (!redirect_get_end(*content, &amp;amp;e))&lt;/div&gt;&lt;div&gt;&lt;span&gt;		&lt;/span&gt;&lt;span style=&quot;white-space: pre&quot;&gt;	&lt;/span&gt;return (0);&lt;/div&gt;&lt;div&gt;&lt;span&gt;	&lt;/span&gt;ft_lstadd_back(&amp;amp;info-&amp;gt;redirect_lst, &lt;span&gt;ft_lstnew(ft_substr(*content, s, e - s)));&lt;/span&gt;&lt;/div&gt;&lt;div&gt;&lt;span&gt;	&lt;/span&gt;*i = s;&lt;/div&gt;&lt;div&gt;&lt;span&gt;	&lt;/span&gt;return (remove_redirect(s, e, content));&lt;/div&gt;" style="text;html=1;strokeColor=none;fillColor=none;align=left;verticalAlign=middle;whiteSpace=wrap;rounded=0;" vertex="1" parent="hcFAv_5k8Y_99JVzGGXi-6">
          <mxGeometry y="26" width="410" height="304" as="geometry" />
        </mxCell>
        <mxCell id="hcFAv_5k8Y_99JVzGGXi-8" value="int	redirect_get_end(char *content, int *e)" style="swimlane;fontStyle=2;align=center;verticalAlign=top;childLayout=stackLayout;horizontal=1;startSize=26;horizontalStack=0;resizeParent=1;resizeLast=0;collapsible=1;marginBottom=0;rounded=0;shadow=0;strokeWidth=1;" vertex="1" parent="WIyWlLk6GJQsqaUBKTNV-1">
          <mxGeometry x="4344" y="4086" width="440" height="224" as="geometry">
            <mxRectangle x="230" y="140" width="160" height="26" as="alternateBounds" />
          </mxGeometry>
        </mxCell>
        <mxCell id="hcFAv_5k8Y_99JVzGGXi-9" value="&lt;div&gt;int&lt;span&gt;	&lt;/span&gt;i;&lt;/div&gt;&lt;div&gt;&lt;br&gt;&lt;/div&gt;&lt;div&gt;&lt;span&gt;	&lt;/span&gt;if (content[*e] == REDIRECT_IN &amp;amp;&amp;amp; content[*e + 1] == REDIRECT_IN)&lt;/div&gt;&lt;blockquote style=&quot;margin: 0 0 0 40px ; border: none ; padding: 0px&quot;&gt;&lt;div&gt;i = move_db_redirect_in(content, e);&lt;/div&gt;&lt;/blockquote&gt;&lt;div&gt;&lt;span&gt;	&lt;/span&gt;else if (content[*e] == REDIRECT_OUT &amp;amp;&amp;amp; content[*e + 1] == REDIRECT_OUT)&lt;/div&gt;&lt;blockquote style=&quot;margin: 0 0 0 40px ; border: none ; padding: 0px&quot;&gt;&lt;div&gt;i = move_db_redirect_out(content, e);&lt;/div&gt;&lt;/blockquote&gt;&lt;div&gt;&lt;span&gt;	&lt;/span&gt;else if (content[*e] == REDIRECT_IN)&lt;/div&gt;&lt;blockquote style=&quot;margin: 0 0 0 40px ; border: none ; padding: 0px&quot;&gt;&lt;div&gt;i = move_sg_redirect_in(content, e);&lt;/div&gt;&lt;/blockquote&gt;&lt;div&gt;&lt;span&gt;	&lt;/span&gt;else if (content[*e] == REDIRECT_OUT)&lt;/div&gt;&lt;blockquote style=&quot;margin: 0 0 0 40px ; border: none ; padding: 0px&quot;&gt;&lt;div&gt;i = move_sg_redirect_out(content, e);&lt;/div&gt;&lt;/blockquote&gt;&lt;div&gt;&lt;span&gt;	&lt;/span&gt;else&lt;/div&gt;&lt;blockquote style=&quot;margin: 0 0 0 40px ; border: none ; padding: 0px&quot;&gt;&lt;div&gt;i = 0;&lt;/div&gt;&lt;/blockquote&gt;&lt;div&gt;&lt;span&gt;	&lt;/span&gt;return (i);&lt;/div&gt;" style="text;html=1;strokeColor=none;fillColor=none;align=left;verticalAlign=middle;whiteSpace=wrap;rounded=0;" vertex="1" parent="hcFAv_5k8Y_99JVzGGXi-8">
          <mxGeometry y="26" width="440" height="194" as="geometry" />
        </mxCell>
        <mxCell id="hcFAv_5k8Y_99JVzGGXi-10" value="int	move_db_redirect_in(char *content, int *e)" style="swimlane;fontStyle=2;align=center;verticalAlign=top;childLayout=stackLayout;horizontal=1;startSize=26;horizontalStack=0;resizeParent=1;resizeLast=0;collapsible=1;marginBottom=0;rounded=0;shadow=0;strokeWidth=1;" vertex="1" parent="WIyWlLk6GJQsqaUBKTNV-1">
          <mxGeometry x="5155" y="4113" width="410" height="360" as="geometry">
            <mxRectangle x="230" y="140" width="160" height="26" as="alternateBounds" />
          </mxGeometry>
        </mxCell>
        <mxCell id="hcFAv_5k8Y_99JVzGGXi-11" value="&lt;div&gt;int&lt;span&gt;	&lt;/span&gt;idx;&lt;/div&gt;&lt;div&gt;&lt;br&gt;&lt;/div&gt;&lt;div&gt;&lt;span&gt;	&lt;/span&gt;idx = *e + 2;&lt;/div&gt;&lt;div&gt;&lt;span&gt;	&lt;/span&gt;if (!content[idx])&lt;/div&gt;&lt;blockquote style=&quot;margin: 0 0 0 40px ; border: none ; padding: 0px&quot;&gt;&lt;div&gt;return (0);&lt;/div&gt;&lt;/blockquote&gt;&lt;div&gt;&lt;span&gt;	&lt;/span&gt;else if (content[idx] == REDIRECT_IN || content[idx] == REDIRECT_OUT)&lt;/div&gt;&lt;blockquote style=&quot;margin: 0 0 0 40px ; border: none ; padding: 0px&quot;&gt;&lt;div&gt;return (0);&lt;/div&gt;&lt;/blockquote&gt;&lt;div&gt;&lt;span&gt;	&lt;/span&gt;else if (content[idx] == &#39;&amp;amp;&#39;)&lt;/div&gt;&lt;blockquote style=&quot;margin: 0 0 0 40px ; border: none ; padding: 0px&quot;&gt;&lt;div&gt;return (0);&lt;/div&gt;&lt;/blockquote&gt;&lt;div&gt;&lt;span&gt;	&lt;/span&gt;else if (content[idx] == &#39; &#39;)&lt;/div&gt;&lt;blockquote style=&quot;margin: 0 0 0 40px ; border: none ; padding: 0px&quot;&gt;&lt;div&gt;return (move_redirect_space(content, e, idx));&lt;/div&gt;&lt;/blockquote&gt;&lt;div&gt;&lt;span&gt;	&lt;/span&gt;else&lt;/div&gt;&lt;div&gt;&lt;span&gt;{&lt;/span&gt;&lt;/div&gt;&lt;blockquote style=&quot;margin: 0 0 0 40px ; border: none ; padding: 0px&quot;&gt;&lt;div&gt;while (content[idx] &amp;amp;&amp;amp; content[idx] != &#39; &#39;)&lt;/div&gt;&lt;div&gt;{&lt;/div&gt;&lt;/blockquote&gt;&lt;blockquote style=&quot;margin: 0 0 0 40px ; border: none ; padding: 0px&quot;&gt;&lt;blockquote style=&quot;margin: 0 0 0 40px ; border: none ; padding: 0px&quot;&gt;&lt;div&gt;if (content[idx] == SINGLE_Q || content[idx] == DOUBLE_Q)&lt;/div&gt;&lt;/blockquote&gt;&lt;blockquote style=&quot;margin: 0 0 0 40px ; border: none ; padding: 0px&quot;&gt;&lt;div&gt;&lt;span style=&quot;white-space: pre&quot;&gt;	&lt;/span&gt;move_quot_point(content, &amp;amp;idx, content[idx]);&lt;/div&gt;&lt;/blockquote&gt;&lt;blockquote style=&quot;margin: 0 0 0 40px ; border: none ; padding: 0px&quot;&gt;&lt;div&gt;else&lt;/div&gt;&lt;/blockquote&gt;&lt;blockquote style=&quot;margin: 0 0 0 40px ; border: none ; padding: 0px&quot;&gt;&lt;div&gt;&lt;span style=&quot;white-space: pre&quot;&gt;	&lt;/span&gt;idx++;&lt;/div&gt;&lt;/blockquote&gt;&lt;/blockquote&gt;&lt;div&gt;&lt;span&gt;		&lt;/span&gt;&lt;span style=&quot;white-space: pre&quot;&gt;	&lt;/span&gt;}&lt;/div&gt;&lt;div&gt;&lt;span&gt;		&lt;/span&gt;&lt;span style=&quot;white-space: pre&quot;&gt;	&lt;/span&gt;*e = idx;&lt;/div&gt;&lt;div&gt;&lt;span&gt;	&lt;/span&gt;}&lt;/div&gt;&lt;div&gt;&lt;span&gt;	&lt;/span&gt;return (1);&lt;/div&gt;" style="text;html=1;strokeColor=none;fillColor=none;align=left;verticalAlign=middle;whiteSpace=wrap;rounded=0;" vertex="1" parent="hcFAv_5k8Y_99JVzGGXi-10">
          <mxGeometry y="26" width="410" height="334" as="geometry" />
        </mxCell>
        <mxCell id="hcFAv_5k8Y_99JVzGGXi-12" value="int	move_db_redirect_out(char *content, int *e)" style="swimlane;fontStyle=2;align=center;verticalAlign=top;childLayout=stackLayout;horizontal=1;startSize=26;horizontalStack=0;resizeParent=1;resizeLast=0;collapsible=1;marginBottom=0;rounded=0;shadow=0;strokeWidth=1;" vertex="1" parent="WIyWlLk6GJQsqaUBKTNV-1">
          <mxGeometry x="5155" y="4540" width="410" height="360" as="geometry">
            <mxRectangle x="230" y="140" width="160" height="26" as="alternateBounds" />
          </mxGeometry>
        </mxCell>
        <mxCell id="hcFAv_5k8Y_99JVzGGXi-13" value="&lt;div&gt;int&lt;span&gt;	&lt;/span&gt;idx;&lt;/div&gt;&lt;div&gt;&lt;br&gt;&lt;/div&gt;&lt;div&gt;&lt;span&gt;	&lt;/span&gt;idx = *e + 2;&lt;/div&gt;&lt;div&gt;&lt;span&gt;	&lt;/span&gt;if (!content[idx])&lt;/div&gt;&lt;blockquote style=&quot;margin: 0 0 0 40px ; border: none ; padding: 0px&quot;&gt;&lt;div&gt;return (0);&lt;/div&gt;&lt;/blockquote&gt;&lt;div&gt;&lt;span&gt;	&lt;/span&gt;else if (content[idx] == REDIRECT_IN || content[idx] == REDIRECT_OUT)&lt;/div&gt;&lt;blockquote style=&quot;margin: 0 0 0 40px ; border: none ; padding: 0px&quot;&gt;&lt;div&gt;return (0);&lt;/div&gt;&lt;/blockquote&gt;&lt;div&gt;&lt;span&gt;	&lt;/span&gt;else if (content[idx] == &#39;&amp;amp;&#39;)&lt;/div&gt;&lt;blockquote style=&quot;margin: 0 0 0 40px ; border: none ; padding: 0px&quot;&gt;&lt;div&gt;return (move_redirect_and(content, e, idx));&lt;/div&gt;&lt;/blockquote&gt;&lt;div&gt;&lt;span&gt;	&lt;/span&gt;else if (content[idx] == &#39; &#39;)&lt;/div&gt;&lt;blockquote style=&quot;margin: 0 0 0 40px ; border: none ; padding: 0px&quot;&gt;&lt;div&gt;return (move_redirect_space(content, e, idx));&lt;/div&gt;&lt;/blockquote&gt;&lt;div&gt;&lt;span&gt;	&lt;/span&gt;else&lt;/div&gt;&lt;div&gt;&lt;span&gt;	&lt;/span&gt;{&lt;/div&gt;&lt;blockquote style=&quot;margin: 0 0 0 40px ; border: none ; padding: 0px&quot;&gt;&lt;div&gt;while (content[idx] &amp;amp;&amp;amp; content[idx] != &#39; &#39;)&lt;/div&gt;&lt;div&gt;&lt;span&gt;{&lt;/span&gt;&lt;/div&gt;&lt;/blockquote&gt;&lt;blockquote style=&quot;margin: 0 0 0 40px ; border: none ; padding: 0px&quot;&gt;&lt;blockquote style=&quot;margin: 0 0 0 40px ; border: none ; padding: 0px&quot;&gt;&lt;div&gt;if (content[idx] == SINGLE_Q || content[idx] == DOUBLE_Q)&lt;/div&gt;&lt;/blockquote&gt;&lt;blockquote style=&quot;margin: 0 0 0 40px ; border: none ; padding: 0px&quot;&gt;&lt;div&gt;&lt;span style=&quot;white-space: pre&quot;&gt;	&lt;/span&gt;move_quot_point(content, &amp;amp;idx, content[idx]);&lt;/div&gt;&lt;/blockquote&gt;&lt;blockquote style=&quot;margin: 0 0 0 40px ; border: none ; padding: 0px&quot;&gt;&lt;div&gt;else&lt;/div&gt;&lt;/blockquote&gt;&lt;blockquote style=&quot;margin: 0 0 0 40px ; border: none ; padding: 0px&quot;&gt;&lt;div&gt;&lt;span style=&quot;white-space: pre&quot;&gt;	&lt;/span&gt;idx++;&lt;/div&gt;&lt;/blockquote&gt;&lt;/blockquote&gt;&lt;blockquote style=&quot;margin: 0 0 0 40px ; border: none ; padding: 0px&quot;&gt;&lt;div&gt;}&lt;/div&gt;&lt;div&gt;*e = idx;&lt;/div&gt;&lt;/blockquote&gt;&lt;div&gt;&lt;span&gt;	&lt;/span&gt;}&lt;/div&gt;&lt;div&gt;&lt;span&gt;	&lt;/span&gt;return (1);&lt;/div&gt;" style="text;html=1;strokeColor=none;fillColor=none;align=left;verticalAlign=middle;whiteSpace=wrap;rounded=0;" vertex="1" parent="hcFAv_5k8Y_99JVzGGXi-12">
          <mxGeometry y="26" width="410" height="334" as="geometry" />
        </mxCell>
        <mxCell id="hcFAv_5k8Y_99JVzGGXi-14" value="int	move_sg_redirect_in(char *content, int *e)" style="swimlane;fontStyle=2;align=center;verticalAlign=top;childLayout=stackLayout;horizontal=1;startSize=26;horizontalStack=0;resizeParent=1;resizeLast=0;collapsible=1;marginBottom=0;rounded=0;shadow=0;strokeWidth=1;" vertex="1" parent="WIyWlLk6GJQsqaUBKTNV-1">
          <mxGeometry x="5155" y="4950" width="410" height="360" as="geometry">
            <mxRectangle x="230" y="140" width="160" height="26" as="alternateBounds" />
          </mxGeometry>
        </mxCell>
        <mxCell id="hcFAv_5k8Y_99JVzGGXi-15" value="&lt;div&gt;int&lt;span&gt;	&lt;/span&gt;idx;&lt;/div&gt;&lt;div&gt;&lt;br&gt;&lt;/div&gt;&lt;div&gt;&lt;span&gt;	&lt;/span&gt;idx = *e + 1;&lt;/div&gt;&lt;div&gt;&lt;span&gt;	&lt;/span&gt;if (!content[idx])&lt;/div&gt;&lt;blockquote style=&quot;margin: 0 0 0 40px ; border: none ; padding: 0px&quot;&gt;&lt;div&gt;return (0);&lt;/div&gt;&lt;/blockquote&gt;&lt;div&gt;&lt;span&gt;	&lt;/span&gt;else if (content[idx] == REDIRECT_OUT)&lt;/div&gt;&lt;blockquote style=&quot;margin: 0 0 0 40px ; border: none ; padding: 0px&quot;&gt;&lt;div&gt;return (0);&lt;/div&gt;&lt;/blockquote&gt;&lt;div&gt;&lt;span&gt;	&lt;/span&gt;else if (content[idx] == &#39;&amp;amp;&#39;)&lt;/div&gt;&lt;blockquote style=&quot;margin: 0 0 0 40px ; border: none ; padding: 0px&quot;&gt;&lt;div&gt;return (move_redirect_and(content, e, idx));&lt;/div&gt;&lt;/blockquote&gt;&lt;div&gt;&lt;span&gt;	&lt;/span&gt;else if (content[idx] == &#39; &#39;)&lt;/div&gt;&lt;blockquote style=&quot;margin: 0 0 0 40px ; border: none ; padding: 0px&quot;&gt;&lt;div&gt;return (move_redirect_space(content, e, idx));&lt;/div&gt;&lt;/blockquote&gt;&lt;div&gt;&lt;span&gt;	&lt;/span&gt;else&lt;/div&gt;&lt;div&gt;&lt;span&gt;	&lt;/span&gt;{&lt;/div&gt;&lt;blockquote style=&quot;margin: 0 0 0 40px ; border: none ; padding: 0px&quot;&gt;&lt;div&gt;while (content[idx] &amp;amp;&amp;amp; content[idx] != &#39; &#39;)&lt;/div&gt;&lt;div&gt;{&lt;/div&gt;&lt;/blockquote&gt;&lt;blockquote style=&quot;margin: 0 0 0 40px ; border: none ; padding: 0px&quot;&gt;&lt;blockquote style=&quot;margin: 0 0 0 40px ; border: none ; padding: 0px&quot;&gt;&lt;div&gt;if (content[idx] == SINGLE_Q || content[idx] == DOUBLE_Q)&lt;/div&gt;&lt;/blockquote&gt;&lt;/blockquote&gt;&lt;blockquote style=&quot;margin: 0 0 0 40px ; border: none ; padding: 0px&quot;&gt;&lt;blockquote style=&quot;margin: 0 0 0 40px ; border: none ; padding: 0px&quot;&gt;&lt;blockquote style=&quot;margin: 0 0 0 40px ; border: none ; padding: 0px&quot;&gt;&lt;div&gt;move_quot_point(content, &amp;amp;idx, content[idx]);&lt;/div&gt;&lt;/blockquote&gt;&lt;/blockquote&gt;&lt;/blockquote&gt;&lt;blockquote style=&quot;margin: 0 0 0 40px ; border: none ; padding: 0px&quot;&gt;&lt;blockquote style=&quot;margin: 0 0 0 40px ; border: none ; padding: 0px&quot;&gt;&lt;div&gt;else&lt;/div&gt;&lt;/blockquote&gt;&lt;/blockquote&gt;&lt;blockquote style=&quot;margin: 0 0 0 40px ; border: none ; padding: 0px&quot;&gt;&lt;blockquote style=&quot;margin: 0 0 0 40px ; border: none ; padding: 0px&quot;&gt;&lt;blockquote style=&quot;margin: 0 0 0 40px ; border: none ; padding: 0px&quot;&gt;&lt;div&gt;idx++;&lt;/div&gt;&lt;/blockquote&gt;&lt;/blockquote&gt;&lt;/blockquote&gt;&lt;blockquote style=&quot;margin: 0 0 0 40px ; border: none ; padding: 0px&quot;&gt;&lt;div&gt;}&lt;/div&gt;&lt;div&gt;*e = idx;&lt;/div&gt;&lt;/blockquote&gt;&lt;div&gt;&lt;span&gt;	&lt;/span&gt;}&lt;/div&gt;&lt;div&gt;&lt;span&gt;	&lt;/span&gt;return (1);&lt;/div&gt;" style="text;html=1;strokeColor=none;fillColor=none;align=left;verticalAlign=middle;whiteSpace=wrap;rounded=0;" vertex="1" parent="hcFAv_5k8Y_99JVzGGXi-14">
          <mxGeometry y="26" width="410" height="334" as="geometry" />
        </mxCell>
        <mxCell id="hcFAv_5k8Y_99JVzGGXi-16" value="int	move_sg_redirect_out(char *content, int *e)" style="swimlane;fontStyle=2;align=center;verticalAlign=top;childLayout=stackLayout;horizontal=1;startSize=26;horizontalStack=0;resizeParent=1;resizeLast=0;collapsible=1;marginBottom=0;rounded=0;shadow=0;strokeWidth=1;" vertex="1" parent="WIyWlLk6GJQsqaUBKTNV-1">
          <mxGeometry x="5155" y="5370" width="410" height="360" as="geometry">
            <mxRectangle x="230" y="140" width="160" height="26" as="alternateBounds" />
          </mxGeometry>
        </mxCell>
        <mxCell id="hcFAv_5k8Y_99JVzGGXi-17" value="&lt;div&gt;int&lt;span&gt;	&lt;/span&gt;idx;&lt;/div&gt;&lt;div&gt;&lt;br&gt;&lt;/div&gt;&lt;div&gt;&lt;span&gt;	&lt;/span&gt;idx = *e + 1;&lt;/div&gt;&lt;div&gt;&lt;span&gt;	&lt;/span&gt;if (!content[idx])&lt;/div&gt;&lt;div&gt;&lt;span&gt;		&lt;/span&gt;&lt;span style=&quot;white-space: pre&quot;&gt;	&lt;/span&gt;return (0);&lt;/div&gt;&lt;div&gt;&lt;span&gt;else if (content[idx] == REDIRECT_IN)&lt;/span&gt;&lt;/div&gt;&lt;div&gt;&lt;span&gt;		&lt;/span&gt;&lt;span style=&quot;white-space: pre&quot;&gt;	&lt;/span&gt;return (0);&lt;/div&gt;&lt;div&gt;&lt;span&gt;	&lt;/span&gt;else if (content[idx] == &#39;&amp;amp;&#39;)&lt;/div&gt;&lt;blockquote style=&quot;margin: 0 0 0 40px ; border: none ; padding: 0px&quot;&gt;&lt;div&gt;return (move_redirect_and(content, e, idx));&lt;/div&gt;&lt;/blockquote&gt;&lt;div&gt;&lt;span&gt;	&lt;/span&gt;else if (content[idx] == &#39; &#39;)&lt;/div&gt;&lt;blockquote style=&quot;margin: 0 0 0 40px ; border: none ; padding: 0px&quot;&gt;&lt;div&gt;return (move_redirect_space(content, e, idx));&lt;/div&gt;&lt;/blockquote&gt;&lt;div&gt;&lt;span&gt;	&lt;/span&gt;else&lt;/div&gt;&lt;blockquote style=&quot;margin: 0 0 0 40px ; border: none ; padding: 0px&quot;&gt;&lt;div&gt;{&lt;/div&gt;&lt;div&gt;while (content[idx] &amp;amp;&amp;amp; content[idx] != &#39; &#39;)&lt;/div&gt;&lt;div&gt;{&lt;/div&gt;&lt;/blockquote&gt;&lt;blockquote style=&quot;margin: 0 0 0 40px ; border: none ; padding: 0px&quot;&gt;&lt;blockquote style=&quot;margin: 0 0 0 40px ; border: none ; padding: 0px&quot;&gt;&lt;div&gt;if (content[idx] == SINGLE_Q || content[idx] == DOUBLE_Q)&lt;/div&gt;&lt;/blockquote&gt;&lt;/blockquote&gt;&lt;blockquote style=&quot;margin: 0 0 0 40px ; border: none ; padding: 0px&quot;&gt;&lt;blockquote style=&quot;margin: 0 0 0 40px ; border: none ; padding: 0px&quot;&gt;&lt;blockquote style=&quot;margin: 0 0 0 40px ; border: none ; padding: 0px&quot;&gt;&lt;div&gt;move_quot_point(content, &amp;amp;idx, content[idx]);&lt;/div&gt;&lt;/blockquote&gt;&lt;/blockquote&gt;&lt;/blockquote&gt;&lt;blockquote style=&quot;margin: 0 0 0 40px ; border: none ; padding: 0px&quot;&gt;&lt;blockquote style=&quot;margin: 0 0 0 40px ; border: none ; padding: 0px&quot;&gt;&lt;div&gt;else&lt;/div&gt;&lt;/blockquote&gt;&lt;/blockquote&gt;&lt;blockquote style=&quot;margin: 0 0 0 40px ; border: none ; padding: 0px&quot;&gt;&lt;blockquote style=&quot;margin: 0 0 0 40px ; border: none ; padding: 0px&quot;&gt;&lt;blockquote style=&quot;margin: 0 0 0 40px ; border: none ; padding: 0px&quot;&gt;&lt;div&gt;idx++;&lt;/div&gt;&lt;/blockquote&gt;&lt;/blockquote&gt;&lt;/blockquote&gt;&lt;blockquote style=&quot;margin: 0 0 0 40px ; border: none ; padding: 0px&quot;&gt;&lt;div&gt;}&lt;/div&gt;&lt;div&gt;*e = idx;&lt;/div&gt;&lt;/blockquote&gt;&lt;div&gt;&lt;span&gt;	&lt;/span&gt;}&lt;/div&gt;&lt;div&gt;&lt;span&gt;	&lt;/span&gt;return (1);&lt;/div&gt;" style="text;html=1;strokeColor=none;fillColor=none;align=left;verticalAlign=middle;whiteSpace=wrap;rounded=0;" vertex="1" parent="hcFAv_5k8Y_99JVzGGXi-16">
          <mxGeometry y="26" width="410" height="334" as="geometry" />
        </mxCell>
        <mxCell id="hcFAv_5k8Y_99JVzGGXi-18" value="int	move_redirect_and(char *content, int *e, int idx)" style="swimlane;fontStyle=2;align=center;verticalAlign=top;childLayout=stackLayout;horizontal=1;startSize=24;horizontalStack=0;resizeParent=1;resizeLast=0;collapsible=1;marginBottom=0;rounded=0;shadow=0;strokeWidth=1;" vertex="1" parent="WIyWlLk6GJQsqaUBKTNV-1">
          <mxGeometry x="6030" y="4666" width="400" height="240" as="geometry">
            <mxRectangle x="230" y="140" width="160" height="26" as="alternateBounds" />
          </mxGeometry>
        </mxCell>
        <mxCell id="hcFAv_5k8Y_99JVzGGXi-19" value="&lt;div&gt;int&lt;span&gt;	&lt;/span&gt;t_idx;&lt;/div&gt;&lt;div&gt;&lt;br&gt;&lt;/div&gt;&lt;div&gt;&lt;span&gt;	&lt;/span&gt;t_idx = idx + 1;&lt;/div&gt;&lt;div&gt;&lt;span&gt;	&lt;/span&gt;while (content[t_idx] &amp;amp;&amp;amp; content[t_idx] != &#39; &#39;)&lt;/div&gt;&lt;div&gt;&lt;span&gt;{&lt;/span&gt;&lt;/div&gt;&lt;blockquote style=&quot;margin: 0 0 0 40px ; border: none ; padding: 0px&quot;&gt;&lt;div&gt;if (content[t_idx] == SINGLE_Q || content[t_idx] == DOUBLE_Q)&lt;/div&gt;&lt;/blockquote&gt;&lt;blockquote style=&quot;margin: 0 0 0 40px ; border: none ; padding: 0px&quot;&gt;&lt;blockquote style=&quot;margin: 0 0 0 40px ; border: none ; padding: 0px&quot;&gt;&lt;div&gt;move_quot_point(content, &amp;amp;t_idx, content[t_idx]);&lt;/div&gt;&lt;/blockquote&gt;&lt;/blockquote&gt;&lt;blockquote style=&quot;margin: 0 0 0 40px ; border: none ; padding: 0px&quot;&gt;&lt;div&gt;else&lt;/div&gt;&lt;/blockquote&gt;&lt;blockquote style=&quot;margin: 0 0 0 40px ; border: none ; padding: 0px&quot;&gt;&lt;blockquote style=&quot;margin: 0 0 0 40px ; border: none ; padding: 0px&quot;&gt;&lt;div&gt;t_idx++;&lt;/div&gt;&lt;/blockquote&gt;&lt;/blockquote&gt;&lt;div&gt;&lt;span&gt;	&lt;/span&gt;}&lt;/div&gt;&lt;div&gt;&lt;span&gt;	&lt;/span&gt;if (t_idx == idx + 1)&lt;/div&gt;&lt;blockquote style=&quot;margin: 0 0 0 40px ; border: none ; padding: 0px&quot;&gt;&lt;div&gt;return (move_redirect_space(content, e, idx));&lt;/div&gt;&lt;/blockquote&gt;&lt;div&gt;&lt;span&gt;	&lt;/span&gt;*e = t_idx;&lt;/div&gt;&lt;div&gt;&lt;span&gt;	&lt;/span&gt;return (1);&lt;/div&gt;" style="text;html=1;strokeColor=none;fillColor=none;align=left;verticalAlign=middle;whiteSpace=wrap;rounded=0;" vertex="1" parent="hcFAv_5k8Y_99JVzGGXi-18">
          <mxGeometry y="24" width="400" height="216" as="geometry" />
        </mxCell>
        <mxCell id="hcFAv_5k8Y_99JVzGGXi-22" value="int	move_redirect_space(char *content, int *e, int idx)" style="swimlane;fontStyle=2;align=center;verticalAlign=top;childLayout=stackLayout;horizontal=1;startSize=27;horizontalStack=0;resizeParent=1;resizeLast=0;collapsible=1;marginBottom=0;rounded=0;shadow=0;strokeWidth=1;" vertex="1" parent="WIyWlLk6GJQsqaUBKTNV-1">
          <mxGeometry x="6033" y="5013" width="387" height="260" as="geometry">
            <mxRectangle x="230" y="140" width="160" height="26" as="alternateBounds" />
          </mxGeometry>
        </mxCell>
        <mxCell id="hcFAv_5k8Y_99JVzGGXi-23" value="&lt;div&gt;int&lt;span&gt;	&lt;/span&gt;t_idx;&lt;/div&gt;&lt;div&gt;&lt;br&gt;&lt;/div&gt;&lt;div&gt;&lt;span&gt;	&lt;/span&gt;t_idx = idx + 1;&lt;/div&gt;&lt;div&gt;&lt;span&gt;	&lt;/span&gt;while (content[t_idx] &amp;amp;&amp;amp; content[t_idx] == &#39; &#39;)&lt;/div&gt;&lt;blockquote style=&quot;margin: 0 0 0 40px ; border: none ; padding: 0px&quot;&gt;&lt;div&gt;t_idx++;&lt;/div&gt;&lt;/blockquote&gt;&lt;div&gt;&lt;span&gt;	&lt;/span&gt;if (!content[t_idx])&lt;/div&gt;&lt;blockquote style=&quot;margin: 0 0 0 40px ; border: none ; padding: 0px&quot;&gt;&lt;div&gt;return (0);&lt;/div&gt;&lt;/blockquote&gt;&lt;div&gt;&lt;span&gt;	&lt;/span&gt;while (content[t_idx] &amp;amp;&amp;amp; content[t_idx] != &#39; &#39;)&lt;/div&gt;&lt;div&gt;&lt;span&gt;	&lt;/span&gt;{&lt;/div&gt;&lt;blockquote style=&quot;margin: 0 0 0 40px ; border: none ; padding: 0px&quot;&gt;&lt;div&gt;if (content[t_idx] == SINGLE_Q || content[t_idx] == DOUBLE_Q)&lt;/div&gt;&lt;/blockquote&gt;&lt;blockquote style=&quot;margin: 0 0 0 40px ; border: none ; padding: 0px&quot;&gt;&lt;blockquote style=&quot;margin: 0 0 0 40px ; border: none ; padding: 0px&quot;&gt;&lt;div&gt;move_quot_point(content, &amp;amp;t_idx, content[t_idx]);&lt;/div&gt;&lt;/blockquote&gt;&lt;/blockquote&gt;&lt;blockquote style=&quot;margin: 0 0 0 40px ; border: none ; padding: 0px&quot;&gt;&lt;div&gt;else&lt;/div&gt;&lt;/blockquote&gt;&lt;blockquote style=&quot;margin: 0 0 0 40px ; border: none ; padding: 0px&quot;&gt;&lt;blockquote style=&quot;margin: 0 0 0 40px ; border: none ; padding: 0px&quot;&gt;&lt;div&gt;t_idx++;&lt;/div&gt;&lt;/blockquote&gt;&lt;/blockquote&gt;&lt;div&gt;&lt;span&gt;	&lt;/span&gt;}&lt;/div&gt;&lt;div&gt;&lt;span&gt;	&lt;/span&gt;*e = t_idx;&lt;/div&gt;&lt;div&gt;&lt;span&gt;	&lt;/span&gt;return (1);&lt;/div&gt;" style="text;html=1;strokeColor=none;fillColor=none;align=left;verticalAlign=middle;whiteSpace=wrap;rounded=0;" vertex="1" parent="hcFAv_5k8Y_99JVzGGXi-22">
          <mxGeometry y="27" width="387" height="233" as="geometry" />
        </mxCell>
        <mxCell id="hcFAv_5k8Y_99JVzGGXi-25" value="void	move_quot_point(char *line, int *e, char end_c)" style="swimlane;fontStyle=2;align=center;verticalAlign=top;childLayout=stackLayout;horizontal=1;startSize=26;horizontalStack=0;resizeParent=1;resizeLast=0;collapsible=1;marginBottom=0;rounded=0;shadow=0;strokeWidth=1;" vertex="1" parent="WIyWlLk6GJQsqaUBKTNV-1">
          <mxGeometry x="6060" y="4440" width="340" height="130" as="geometry">
            <mxRectangle x="230" y="140" width="160" height="26" as="alternateBounds" />
          </mxGeometry>
        </mxCell>
        <mxCell id="hcFAv_5k8Y_99JVzGGXi-26" value="&lt;div&gt;&lt;span&gt;	&lt;/span&gt;int&lt;span&gt;	&lt;/span&gt;idx;&lt;/div&gt;&lt;div&gt;&lt;br&gt;&lt;/div&gt;&lt;div&gt;&lt;span&gt;	&lt;/span&gt;idx = *e + 1;&lt;/div&gt;&lt;div&gt;&lt;span&gt;	&lt;/span&gt;while (line[idx] != end_c)&lt;/div&gt;&lt;div&gt;&lt;span&gt;		&lt;/span&gt;&lt;span style=&quot;white-space: pre&quot;&gt;	&lt;/span&gt;idx++;&lt;/div&gt;&lt;div&gt;&lt;span&gt;	&lt;/span&gt;*e = idx + 1;&lt;/div&gt;" style="text;html=1;strokeColor=none;fillColor=none;align=left;verticalAlign=middle;whiteSpace=wrap;rounded=0;" vertex="1" parent="hcFAv_5k8Y_99JVzGGXi-25">
          <mxGeometry y="26" width="340" height="104" as="geometry" />
        </mxCell>
        <mxCell id="hcFAv_5k8Y_99JVzGGXi-27" style="edgeStyle=orthogonalEdgeStyle;rounded=0;orthogonalLoop=1;jettySize=auto;html=1;entryX=0;entryY=0.5;entryDx=0;entryDy=0;" edge="1" parent="WIyWlLk6GJQsqaUBKTNV-1" target="hcFAv_5k8Y_99JVzGGXi-1">
          <mxGeometry relative="1" as="geometry">
            <mxPoint x="1396" y="390" as="sourcePoint" />
            <Array as="points">
              <mxPoint x="1396" y="390" />
              <mxPoint x="1510" y="390" />
              <mxPoint x="1510" y="4013" />
            </Array>
          </mxGeometry>
        </mxCell>
        <mxCell id="hcFAv_5k8Y_99JVzGGXi-28" style="edgeStyle=orthogonalEdgeStyle;rounded=0;orthogonalLoop=1;jettySize=auto;html=1;exitX=1;exitY=0.5;exitDx=0;exitDy=0;" edge="1" parent="WIyWlLk6GJQsqaUBKTNV-1" source="hcFAv_5k8Y_99JVzGGXi-1" target="hcFAv_5k8Y_99JVzGGXi-3">
          <mxGeometry relative="1" as="geometry">
            <Array as="points">
              <mxPoint x="2400" y="3993" />
              <mxPoint x="2400" y="3993" />
            </Array>
          </mxGeometry>
        </mxCell>
        <mxCell id="hcFAv_5k8Y_99JVzGGXi-29" style="edgeStyle=orthogonalEdgeStyle;rounded=0;orthogonalLoop=1;jettySize=auto;html=1;entryX=0;entryY=0.5;entryDx=0;entryDy=0;" edge="1" parent="WIyWlLk6GJQsqaUBKTNV-1" target="hcFAv_5k8Y_99JVzGGXi-5">
          <mxGeometry relative="1" as="geometry">
            <mxPoint x="3135" y="3970" as="sourcePoint" />
            <Array as="points">
              <mxPoint x="3135" y="3970" />
              <mxPoint x="3328" y="3970" />
              <mxPoint x="3328" y="3918" />
            </Array>
          </mxGeometry>
        </mxCell>
        <mxCell id="hcFAv_5k8Y_99JVzGGXi-30" style="edgeStyle=orthogonalEdgeStyle;rounded=0;orthogonalLoop=1;jettySize=auto;html=1;exitX=1;exitY=0.5;exitDx=0;exitDy=0;entryX=0;entryY=0.5;entryDx=0;entryDy=0;" edge="1" parent="WIyWlLk6GJQsqaUBKTNV-1" source="hcFAv_5k8Y_99JVzGGXi-3" target="hcFAv_5k8Y_99JVzGGXi-7">
          <mxGeometry relative="1" as="geometry">
            <Array as="points">
              <mxPoint x="3303" y="4010" />
              <mxPoint x="3303" y="4238" />
            </Array>
          </mxGeometry>
        </mxCell>
        <mxCell id="hcFAv_5k8Y_99JVzGGXi-31" style="edgeStyle=orthogonalEdgeStyle;rounded=0;orthogonalLoop=1;jettySize=auto;html=1;exitX=1;exitY=0.5;exitDx=0;exitDy=0;entryX=0;entryY=0.5;entryDx=0;entryDy=0;" edge="1" parent="WIyWlLk6GJQsqaUBKTNV-1" source="hcFAv_5k8Y_99JVzGGXi-7" target="hcFAv_5k8Y_99JVzGGXi-9">
          <mxGeometry relative="1" as="geometry" />
        </mxCell>
        <mxCell id="hcFAv_5k8Y_99JVzGGXi-32" style="edgeStyle=orthogonalEdgeStyle;rounded=0;orthogonalLoop=1;jettySize=auto;html=1;" edge="1" parent="WIyWlLk6GJQsqaUBKTNV-1" target="hcFAv_5k8Y_99JVzGGXi-11">
          <mxGeometry relative="1" as="geometry">
            <mxPoint x="4784" y="4170" as="sourcePoint" />
            <Array as="points">
              <mxPoint x="4950" y="4170" />
              <mxPoint x="4950" y="4306" />
            </Array>
          </mxGeometry>
        </mxCell>
        <mxCell id="hcFAv_5k8Y_99JVzGGXi-33" style="edgeStyle=orthogonalEdgeStyle;rounded=0;orthogonalLoop=1;jettySize=auto;html=1;entryX=0;entryY=0.5;entryDx=0;entryDy=0;" edge="1" parent="WIyWlLk6GJQsqaUBKTNV-1" target="hcFAv_5k8Y_99JVzGGXi-13">
          <mxGeometry relative="1" as="geometry">
            <mxPoint x="4784" y="4200" as="sourcePoint" />
            <Array as="points">
              <mxPoint x="4920" y="4200" />
              <mxPoint x="4920" y="4733" />
            </Array>
          </mxGeometry>
        </mxCell>
        <mxCell id="hcFAv_5k8Y_99JVzGGXi-34" style="edgeStyle=orthogonalEdgeStyle;rounded=0;orthogonalLoop=1;jettySize=auto;html=1;entryX=0;entryY=0.5;entryDx=0;entryDy=0;" edge="1" parent="WIyWlLk6GJQsqaUBKTNV-1" target="hcFAv_5k8Y_99JVzGGXi-15">
          <mxGeometry relative="1" as="geometry">
            <mxPoint x="4784" y="4230" as="sourcePoint" />
            <Array as="points">
              <mxPoint x="4890" y="4230" />
              <mxPoint x="4890" y="5143" />
            </Array>
          </mxGeometry>
        </mxCell>
        <mxCell id="hcFAv_5k8Y_99JVzGGXi-35" style="edgeStyle=orthogonalEdgeStyle;rounded=0;orthogonalLoop=1;jettySize=auto;html=1;entryX=0;entryY=0.5;entryDx=0;entryDy=0;" edge="1" parent="WIyWlLk6GJQsqaUBKTNV-1" target="hcFAv_5k8Y_99JVzGGXi-17">
          <mxGeometry relative="1" as="geometry">
            <mxPoint x="4784" y="4260" as="sourcePoint" />
            <Array as="points">
              <mxPoint x="4850" y="4260" />
              <mxPoint x="4850" y="5563" />
            </Array>
          </mxGeometry>
        </mxCell>
        <mxCell id="hcFAv_5k8Y_99JVzGGXi-37" style="edgeStyle=orthogonalEdgeStyle;rounded=0;orthogonalLoop=1;jettySize=auto;html=1;entryX=0;entryY=0.5;entryDx=0;entryDy=0;" edge="1" parent="WIyWlLk6GJQsqaUBKTNV-1" target="hcFAv_5k8Y_99JVzGGXi-23">
          <mxGeometry relative="1" as="geometry">
            <mxPoint x="5565" y="4290" as="sourcePoint" />
            <Array as="points">
              <mxPoint x="5700" y="4290" />
              <mxPoint x="5700" y="5157" />
            </Array>
          </mxGeometry>
        </mxCell>
        <mxCell id="hcFAv_5k8Y_99JVzGGXi-38" style="edgeStyle=orthogonalEdgeStyle;rounded=0;orthogonalLoop=1;jettySize=auto;html=1;exitX=1;exitY=0.5;exitDx=0;exitDy=0;entryX=-0.001;entryY=0.41;entryDx=0;entryDy=0;entryPerimeter=0;" edge="1" parent="WIyWlLk6GJQsqaUBKTNV-1" source="hcFAv_5k8Y_99JVzGGXi-13" target="hcFAv_5k8Y_99JVzGGXi-26">
          <mxGeometry relative="1" as="geometry">
            <Array as="points">
              <mxPoint x="5800" y="4733" />
              <mxPoint x="5800" y="4509" />
            </Array>
          </mxGeometry>
        </mxCell>
        <mxCell id="hcFAv_5k8Y_99JVzGGXi-39" style="edgeStyle=orthogonalEdgeStyle;rounded=0;orthogonalLoop=1;jettySize=auto;html=1;exitX=1;exitY=0.5;exitDx=0;exitDy=0;" edge="1" parent="WIyWlLk6GJQsqaUBKTNV-1" source="hcFAv_5k8Y_99JVzGGXi-13" target="hcFAv_5k8Y_99JVzGGXi-19">
          <mxGeometry relative="1" as="geometry">
            <Array as="points">
              <mxPoint x="5800" y="4733" />
              <mxPoint x="5800" y="4798" />
            </Array>
          </mxGeometry>
        </mxCell>
        <mxCell id="hcFAv_5k8Y_99JVzGGXi-40" style="edgeStyle=orthogonalEdgeStyle;rounded=0;orthogonalLoop=1;jettySize=auto;html=1;exitX=1;exitY=0.5;exitDx=0;exitDy=0;entryX=0;entryY=0.5;entryDx=0;entryDy=0;" edge="1" parent="WIyWlLk6GJQsqaUBKTNV-1" source="hcFAv_5k8Y_99JVzGGXi-13" target="hcFAv_5k8Y_99JVzGGXi-23">
          <mxGeometry relative="1" as="geometry">
            <Array as="points">
              <mxPoint x="5800" y="4733" />
              <mxPoint x="5800" y="5157" />
            </Array>
          </mxGeometry>
        </mxCell>
        <mxCell id="hcFAv_5k8Y_99JVzGGXi-41" style="edgeStyle=orthogonalEdgeStyle;rounded=0;orthogonalLoop=1;jettySize=auto;html=1;exitX=1;exitY=0.5;exitDx=0;exitDy=0;" edge="1" parent="WIyWlLk6GJQsqaUBKTNV-1" source="hcFAv_5k8Y_99JVzGGXi-15" target="hcFAv_5k8Y_99JVzGGXi-23">
          <mxGeometry relative="1" as="geometry">
            <Array as="points">
              <mxPoint x="5800" y="5143" />
              <mxPoint x="5800" y="5157" />
            </Array>
          </mxGeometry>
        </mxCell>
        <mxCell id="hcFAv_5k8Y_99JVzGGXi-42" style="edgeStyle=orthogonalEdgeStyle;rounded=0;orthogonalLoop=1;jettySize=auto;html=1;exitX=1;exitY=0.5;exitDx=0;exitDy=0;entryX=0;entryY=0.5;entryDx=0;entryDy=0;" edge="1" parent="WIyWlLk6GJQsqaUBKTNV-1" source="hcFAv_5k8Y_99JVzGGXi-15" target="hcFAv_5k8Y_99JVzGGXi-19">
          <mxGeometry relative="1" as="geometry">
            <Array as="points">
              <mxPoint x="5800" y="5143" />
              <mxPoint x="5800" y="4798" />
            </Array>
          </mxGeometry>
        </mxCell>
        <mxCell id="hcFAv_5k8Y_99JVzGGXi-44" style="edgeStyle=orthogonalEdgeStyle;rounded=0;orthogonalLoop=1;jettySize=auto;html=1;exitX=1;exitY=0.5;exitDx=0;exitDy=0;entryX=0;entryY=0.5;entryDx=0;entryDy=0;" edge="1" parent="WIyWlLk6GJQsqaUBKTNV-1" source="hcFAv_5k8Y_99JVzGGXi-17" target="hcFAv_5k8Y_99JVzGGXi-23">
          <mxGeometry relative="1" as="geometry">
            <Array as="points">
              <mxPoint x="5800" y="5563" />
              <mxPoint x="5800" y="5157" />
            </Array>
          </mxGeometry>
        </mxCell>
        <mxCell id="hcFAv_5k8Y_99JVzGGXi-45" style="edgeStyle=orthogonalEdgeStyle;rounded=0;orthogonalLoop=1;jettySize=auto;html=1;exitX=1;exitY=0.5;exitDx=0;exitDy=0;entryX=0;entryY=0.5;entryDx=0;entryDy=0;" edge="1" parent="WIyWlLk6GJQsqaUBKTNV-1" source="hcFAv_5k8Y_99JVzGGXi-17" target="hcFAv_5k8Y_99JVzGGXi-19">
          <mxGeometry relative="1" as="geometry">
            <Array as="points">
              <mxPoint x="5800" y="5563" />
              <mxPoint x="5800" y="4798" />
            </Array>
          </mxGeometry>
        </mxCell>
        <mxCell id="hcFAv_5k8Y_99JVzGGXi-47" style="edgeStyle=orthogonalEdgeStyle;rounded=0;orthogonalLoop=1;jettySize=auto;html=1;exitX=1;exitY=0.5;exitDx=0;exitDy=0;entryX=1;entryY=0.5;entryDx=0;entryDy=0;" edge="1" parent="WIyWlLk6GJQsqaUBKTNV-1" source="hcFAv_5k8Y_99JVzGGXi-23" target="hcFAv_5k8Y_99JVzGGXi-26">
          <mxGeometry relative="1" as="geometry">
            <Array as="points">
              <mxPoint x="6590" y="5157" />
              <mxPoint x="6590" y="4518" />
            </Array>
          </mxGeometry>
        </mxCell>
        <mxCell id="hcFAv_5k8Y_99JVzGGXi-48" style="edgeStyle=orthogonalEdgeStyle;rounded=0;orthogonalLoop=1;jettySize=auto;html=1;exitX=1;exitY=0.5;exitDx=0;exitDy=0;entryX=1;entryY=0.5;entryDx=0;entryDy=0;" edge="1" parent="WIyWlLk6GJQsqaUBKTNV-1" source="hcFAv_5k8Y_99JVzGGXi-19" target="hcFAv_5k8Y_99JVzGGXi-26">
          <mxGeometry relative="1" as="geometry">
            <Array as="points">
              <mxPoint x="6490" y="4798" />
              <mxPoint x="6490" y="4518" />
            </Array>
          </mxGeometry>
        </mxCell>
        <mxCell id="hcFAv_5k8Y_99JVzGGXi-49" style="edgeStyle=orthogonalEdgeStyle;rounded=0;orthogonalLoop=1;jettySize=auto;html=1;exitX=1;exitY=0.5;exitDx=0;exitDy=0;" edge="1" parent="WIyWlLk6GJQsqaUBKTNV-1" source="hcFAv_5k8Y_99JVzGGXi-19" target="hcFAv_5k8Y_99JVzGGXi-22">
          <mxGeometry relative="1" as="geometry" />
        </mxCell>
        <mxCell id="hcFAv_5k8Y_99JVzGGXi-52" style="edgeStyle=orthogonalEdgeStyle;rounded=0;orthogonalLoop=1;jettySize=auto;html=1;entryX=-0.006;entryY=0.41;entryDx=0;entryDy=0;entryPerimeter=0;" edge="1" parent="WIyWlLk6GJQsqaUBKTNV-1" target="hcFAv_5k8Y_99JVzGGXi-26">
          <mxGeometry relative="1" as="geometry">
            <mxPoint x="5565" y="4380" as="sourcePoint" />
            <Array as="points">
              <mxPoint x="5760" y="4380" />
              <mxPoint x="5760" y="4509" />
            </Array>
          </mxGeometry>
        </mxCell>
        <mxCell id="hcFAv_5k8Y_99JVzGGXi-53" style="edgeStyle=orthogonalEdgeStyle;rounded=0;orthogonalLoop=1;jettySize=auto;html=1;exitX=1;exitY=0.5;exitDx=0;exitDy=0;entryX=-0.001;entryY=0.41;entryDx=0;entryDy=0;entryPerimeter=0;" edge="1" parent="WIyWlLk6GJQsqaUBKTNV-1" source="hcFAv_5k8Y_99JVzGGXi-15" target="hcFAv_5k8Y_99JVzGGXi-26">
          <mxGeometry relative="1" as="geometry">
            <Array as="points">
              <mxPoint x="5800" y="5143" />
              <mxPoint x="5800" y="4509" />
            </Array>
          </mxGeometry>
        </mxCell>
        <mxCell id="hcFAv_5k8Y_99JVzGGXi-55" style="edgeStyle=orthogonalEdgeStyle;rounded=0;orthogonalLoop=1;jettySize=auto;html=1;exitX=1;exitY=0.5;exitDx=0;exitDy=0;entryX=-0.001;entryY=0.41;entryDx=0;entryDy=0;entryPerimeter=0;" edge="1" parent="WIyWlLk6GJQsqaUBKTNV-1" source="hcFAv_5k8Y_99JVzGGXi-17" target="hcFAv_5k8Y_99JVzGGXi-26">
          <mxGeometry relative="1" as="geometry">
            <Array as="points">
              <mxPoint x="5800" y="5563" />
              <mxPoint x="5800" y="4509" />
            </Array>
          </mxGeometry>
        </mxCell>
      </root>
    </mxGraphModel>
  </diagram>
</mxfile>
